<?xml version="1.0" standalone="no"?>
<!DOCTYPE svg PUBLIC "-//W3C//DTD SVG 20010904//EN"
 "http://www.w3.org/TR/2001/REC-SVG-20010904/DTD/svg10.dtd">
<svg version="1.0" xmlns="http://www.w3.org/2000/svg"
 width="300.000000pt" height="300.000000pt" viewBox="0 0 300.000000 300.000000"
 preserveAspectRatio="xMidYMid meet">
<metadata>
Created by potrace 1.10, written by Peter Selinger 2001-2011
</metadata>
<g transform="translate(0.000000,300.000000) scale(0.100000,-0.100000)"
fill="#000000" stroke="none">
<path d="M1385 2850 c-18 -5 28 -8 120 -8 87 0 139 3 124 8 -34 10 -206 10
-244 0z"/>
<path d="M1370 2809 c33 -14 264 -14 287 0 13 8 -27 10 -147 10 -122 0 -158
-3 -140 -10z"/>
<path d="M1475 2742 c-11 -2 -22 -7 -25 -11 -3 -3 -35 -21 -73 -40 l-67 -33
-37 36 c-21 20 -42 36 -48 36 -16 0 -35 -22 -35 -39 0 -9 -4 -22 -9 -29 -7
-12 -12 -12 -32 0 -13 7 -26 16 -29 20 -9 12 -159 -73 -168 -94 -2 -5 -14 -8
-27 -8 -12 0 -28 -7 -35 -15 -7 -8 -24 -21 -39 -28 -54 -28 -106 -60 -111 -68
-3 -4 -18 -13 -34 -18 -15 -6 -30 -19 -33 -29 -2 -9 -24 -29 -49 -44 -40 -25
-111 -115 -99 -127 3 -2 34 27 69 65 35 38 67 66 72 61 4 -4 -13 -29 -38 -55
-55 -58 -126 -148 -152 -193 -15 -25 -19 -49 -17 -93 3 -67 -15 -201 -36 -266
-35 -110 -27 -336 19 -530 16 -68 19 -105 15 -185 -5 -99 -5 -101 27 -155 23
-39 39 -56 57 -58 13 -2 32 -11 41 -19 21 -19 13 -39 -8 -22 -8 6 -16 10 -19
8 -2 -3 20 -32 50 -64 30 -33 54 -55 54 -50 1 6 -13 25 -29 44 -17 18 -30 38
-30 42 0 11 14 12 24 2 4 -5 11 -8 14 -8 10 0 106 -68 110 -77 2 -4 10 -8 18
-8 8 0 14 -8 14 -17 0 -15 2 -16 10 -3 9 14 14 7 11 -13 -1 -5 4 -7 11 -4 12
4 94 -36 148 -73 14 -9 57 -34 95 -55 39 -22 72 -41 75 -44 3 -3 31 -19 63
-36 52 -27 75 -55 45 -55 -12 0 21 -29 35 -30 10 0 4 23 -8 32 -6 5 -6 8 2 8
6 0 18 -6 25 -12 8 -7 44 -29 81 -47 37 -19 67 -37 67 -41 0 -3 14 -11 32 -19
30 -14 35 -12 135 40 58 29 107 58 110 63 4 5 12 2 18 -8 7 -9 19 -14 29 -10
21 8 20 21 -1 27 -17 4 -17 5 0 6 9 0 17 5 17 10 0 5 19 18 43 30 23 12 57 31
76 42 37 22 56 18 25 -6 -10 -8 -14 -14 -9 -14 6 -1 21 8 35 19 14 11 29 20
34 20 5 0 24 11 42 25 18 14 35 25 38 25 7 0 136 82 136 86 0 3 -9 0 -19 -6
-33 -17 -35 -11 -5 12 16 13 31 26 32 30 2 5 8 6 13 2 5 -3 9 -1 9 4 0 6 19
20 43 32 23 12 72 46 109 76 37 30 75 54 86 54 18 0 62 38 62 55 0 5 7 16 16
26 13 15 17 45 18 161 1 106 8 167 24 238 17 73 22 127 22 233 0 129 -6 175
-41 328 -6 26 -9 83 -8 127 2 78 1 83 -35 136 -26 39 -44 56 -59 56 -19 1 -20
2 -5 10 14 9 7 20 -50 81 -69 73 -80 89 -64 89 5 0 37 -29 71 -65 47 -51 61
-61 61 -45 0 25 -99 130 -123 130 -9 0 -21 -9 -27 -20 -9 -16 -6 -26 17 -55
15 -19 31 -35 35 -35 4 0 12 -9 18 -19 12 -24 -9 -23 -37 1 -10 8 -37 26 -60
38 -24 13 -43 27 -43 31 0 4 -9 11 -21 14 -11 4 -35 19 -52 34 -59 51 -275
173 -296 166 -24 -7 -57 23 -42 38 17 17 13 46 -9 59 -11 7 -20 19 -20 27 0
10 -3 11 -14 2 -12 -10 -17 -8 -25 7 -12 22 -59 19 -68 -4 -7 -20 -29 -17 -82
10 -77 41 -121 57 -121 43 0 -8 -3 -8 -8 -2 -4 6 -16 9 -27 7z m-241 -38 c8
-22 8 -24 -8 -24 -15 0 -28 24 -19 34 11 10 21 7 27 -10z m311 -14 c34 -22 50
-26 39 -8 -4 6 38 -13 92 -42 123 -67 162 -90 149 -90 -5 0 -59 27 -119 60
-60 33 -111 58 -113 56 -4 -4 59 -41 525 -306 281 -161 302 -175 302 -200 0
-15 7 -33 15 -40 8 -7 15 -23 15 -35 0 -12 7 -28 15 -35 21 -18 23 -1051 1
-1069 -8 -7 -17 -23 -20 -36 -4 -14 -11 -25 -16 -25 -6 0 -10 -15 -10 -33 0
-26 -6 -36 -32 -51 -149 -86 -730 -436 -796 -479 l-83 -55 -187 113 c-103 62
-310 185 -460 274 l-272 161 0 35 c0 19 -4 35 -10 35 -5 0 -10 8 -10 19 0 10
-7 24 -15 31 -22 19 -22 1065 0 1094 8 11 15 28 15 38 0 10 5 18 10 18 6 0 10
15 10 33 0 32 3 33 420 271 231 131 434 249 452 262 41 28 46 29 83 4z m-105
-4 c0 -4 -175 -102 -202 -114 -5 -2 -8 1 -8 7 0 6 5 11 10 11 6 0 50 22 98 50
82 47 102 56 102 46z m353 -34 c31 -19 57 -38 57 -44 0 -12 0 -12 -72 30 -32
19 -58 38 -58 44 0 12 0 12 73 -30z m-513 21 c0 -5 -107 -71 -236 -147 -130
-77 -252 -150 -270 -163 -38 -25 -47 -28 -42 -13 3 10 524 327 541 329 4 1 7
-2 7 -6z m-158 -31 c3 -10 -1 -23 -8 -30 -11 -10 -15 -8 -24 8 -6 11 -8 25 -5
30 10 16 32 11 37 -8z m-65 -38 c3 -8 -1 -22 -10 -31 -14 -14 -16 -13 -26 6
-7 12 -9 26 -6 31 10 15 35 12 42 -6z m-120 -88 c-4 -9 -11 -16 -17 -16 -6 0
-9 4 -6 9 4 5 1 11 -6 13 -7 3 -9 12 -4 23 6 17 8 17 23 3 9 -9 13 -24 10 -32z
m-69 -22 c10 -18 8 -23 -8 -27 -14 -3 -24 2 -31 15 -10 18 -9 20 5 15 11 -4
16 -1 16 10 0 19 3 17 18 -13z m-71 -35 c14 -14 6 -39 -12 -39 -18 0 -28 17
-21 35 6 18 18 19 33 4z m-81 -45 c-4 -12 -2 -15 9 -10 8 3 15 1 15 -5 0 -15
-30 -23 -42 -11 -13 13 -4 42 13 42 6 0 8 -7 5 -16z m1502 -80 c72 -42 132
-78 132 -81 0 -6 -139 69 -235 127 -114 68 -41 35 103 -46z m-1493 3 c10 -8
14 -16 9 -19 -44 -28 -124 -68 -124 -63 0 12 74 95 85 95 6 0 19 -6 30 -13z
m-175 -187 c-21 -14 -30 -12 -30 4 0 18 22 27 35 14 6 -6 5 -12 -5 -18z m0
-41 c0 -5 -9 -17 -20 -26 -20 -17 -20 -30 -20 -570 0 -349 4 -553 10 -553 13
0 32 -38 21 -44 -4 -3 -20 5 -35 17 l-26 23 0 562 0 563 27 24 c27 22 43 24
43 4z m1962 -6 l28 -27 0 -561 0 -561 -30 -22 c-16 -12 -32 -22 -35 -22 -13 0
-3 28 15 45 20 18 20 31 20 564 0 535 0 546 -20 559 -19 11 -29 52 -13 52 4 0
20 -12 35 -27z m-2065 -479 c-5 -74 -17 -61 -16 17 0 58 2 69 10 50 5 -13 8
-43 6 -67z m2 -172 l0 -37 -13 35 c-13 37 -11 54 5 45 5 -4 9 -23 8 -43z m106
-562 c12 -19 -5 -30 -25 -17 -11 6 -20 15 -20 19 0 12 38 10 45 -2z m1945 0
c0 -5 -9 -14 -20 -20 -15 -8 -20 -8 -20 3 0 8 3 17 7 20 10 10 33 8 33 -3z
m-185 -133 c-28 -18 -75 -48 -105 -66 -69 -40 -85 -50 -137 -83 -23 -16 -44
-28 -48 -28 -3 0 -31 -16 -61 -35 -30 -19 -57 -35 -60 -35 -3 0 -28 -15 -57
-33 -65 -42 -195 -113 -185 -102 12 12 682 413 693 414 5 1 -13 -14 -40 -32z
m-231 -169 c-7 -19 -114 -88 -135 -88 -5 0 -9 5 -9 10 0 6 9 10 21 10 11 0 17
4 14 10 -3 5 0 7 8 4 8 -3 17 2 20 10 4 9 12 16 19 16 7 0 24 9 38 20 30 23
31 24 24 8z"/>
<path d="M1375 2600 c-71 -42 -244 -142 -382 -220 -228 -129 -253 -146 -253
-169 0 -22 -12 -32 -80 -69 -66 -35 -80 -47 -80 -67 0 -13 -5 -27 -10 -30 -13
-8 -14 -1038 -1 -1063 5 -9 12 -25 15 -34 3 -10 31 -30 63 -47 74 -37 108 -64
99 -80 -5 -8 -12 -6 -24 8 -9 10 -39 31 -66 46 -43 25 -48 26 -44 9 2 -11 61
-52 163 -113 88 -51 288 -170 445 -264 l285 -169 31 18 c17 11 190 115 385
233 319 192 355 216 354 239 0 22 12 32 72 67 120 67 113 27 112 630 0 428 -2
513 -15 529 -8 11 -14 27 -14 35 0 10 -33 34 -81 60 -70 37 -80 46 -77 66 4
20 -12 33 -151 111 -187 105 -564 320 -595 338 -19 12 -33 6 -151 -64z m257
-31 c136 -78 134 -77 125 -85 -3 -3 -60 26 -128 65 l-122 71 -111 -67 c-296
-178 -571 -333 -583 -329 -9 4 -13 -3 -13 -20 0 -34 -6 -37 232 102 204 118
307 174 320 174 19 0 6 -16 -23 -29 -18 -8 -124 -67 -236 -133 -113 -66 -215
-123 -226 -129 -12 -5 -29 -14 -38 -21 -9 -6 -24 -8 -33 -5 -22 9 -19 72 4 73
8 0 53 22 100 50 295 172 605 353 607 354 0 0 57 -32 125 -71z m-78 -30 c45
-30 46 -32 46 -84 0 -51 -2 -55 -44 -89 -23 -20 -47 -36 -52 -36 -5 1 -28 18
-51 39 -40 36 -43 43 -43 89 0 49 1 51 48 80 26 17 48 31 49 31 1 1 22 -13 47
-30z m403 -218 c117 -68 210 -128 207 -133 -3 -5 -15 -3 -27 5 -12 7 -110 65
-217 127 -107 62 -197 116 -200 120 -3 3 -13 9 -22 13 -10 3 -18 11 -18 17 0
12 10 7 277 -149z m30 42 c112 -65 203 -124 203 -131 0 -9 -14 -5 -42 13 -24
14 -118 69 -210 123 -148 85 -186 112 -161 112 4 0 98 -53 210 -117z m-603 40
c-10 -8 -39 -25 -64 -37 -25 -13 -148 -82 -274 -155 -126 -72 -235 -130 -243
-127 -20 8 -16 26 6 26 10 0 117 57 237 126 121 70 233 133 249 140 17 7 43
22 59 33 33 22 60 16 30 -6z m614 -182 c106 -61 199 -111 207 -111 21 0 27
-17 9 -24 -11 -4 -63 21 -143 67 -192 112 -351 203 -400 229 -25 13 -47 30
-49 37 -5 16 114 -47 376 -198z m-624 109 c-5 -5 -88 -54 -184 -110 -191 -112
-249 -149 -271 -176 -13 -16 -12 -17 16 -9 17 4 37 8 45 9 25 4 49 16 185 96
168 99 175 103 175 91 0 -10 -290 -181 -308 -181 -6 0 -17 -10 -23 -22 -11
-21 -12 -21 -26 -2 -13 17 -13 15 -7 -22 3 -23 2 -44 -2 -47 -13 -7 -54 10
-54 23 0 5 -13 23 -30 38 -35 34 -40 57 -10 49 12 -3 34 6 58 23 21 15 125 78
230 140 106 61 195 117 199 123 5 8 8 7 11 -2 2 -7 0 -16 -4 -21z m288 11 c2
-4 92 -59 201 -121 172 -99 218 -131 190 -130 -17 1 -417 236 -421 248 -4 13
24 17 30 3z m-214 -72 l-5 -50 28 27 c16 15 29 23 29 18 0 -6 -14 -23 -31 -40
-28 -26 -30 -33 -25 -71 3 -24 4 -43 1 -43 -2 0 -22 19 -44 43 l-40 42 -28
-18 c-15 -9 -87 -53 -160 -97 -111 -68 -132 -85 -138 -110 -6 -29 -15 -37 -28
-24 -3 3 0 21 6 39 10 29 35 48 181 135 l169 101 33 -32 34 -33 -7 66 c-6 70
-1 98 18 98 8 0 10 -16 7 -51z m142 -37 l0 -76 35 34 c32 31 36 32 52 18 10
-8 62 -41 116 -73 53 -32 97 -62 97 -67 0 -10 -16 -2 -132 68 -49 30 -92 54
-96 54 -5 0 -26 -18 -47 -40 -21 -22 -42 -40 -45 -40 -4 0 -4 187 -1 208 1 2
6 0 11 -3 6 -3 10 -41 10 -83z m211 -64 c169 -97 175 -101 163 -105 -10 -3
-277 146 -298 167 -26 26 21 5 135 -62z m437 37 c3 -19 -2 -33 -14 -42 -23
-17 -34 -16 -34 2 0 8 7 15 15 15 18 0 21 46 3 54 -7 3 -4 5 7 3 14 -1 21 -11
23 -32z m-758 -25 c0 -15 7 -20 25 -20 18 0 25 5 25 20 0 11 5 20 11 20 6 0 9
-12 7 -27 -3 -25 -7 -28 -43 -28 -36 0 -40 3 -43 28 -2 15 1 27 7 27 6 0 11
-9 11 -20z m800 -40 c0 -11 -30 -21 -41 -15 -13 8 13 33 28 28 7 -3 13 -9 13
-13z m-1500 -6 c0 -9 -7 -14 -17 -12 -25 5 -28 28 -4 28 12 0 21 -6 21 -16z
m599 -27 c-22 -15 -311 -187 -314 -187 -3 0 -5 6 -5 13 0 16 256 173 291 179
23 4 37 1 28 -5z m326 1 c24 -11 35 -38 15 -38 -18 0 -60 32 -54 41 7 11 8 11
39 -3z m-918 -48 c51 -34 53 -37 53 -80 0 -46 0 -46 -56 -73 -60 -30 -54 -31
-125 27 -34 27 -35 31 -28 69 4 23 11 43 16 44 5 2 25 14 44 28 18 13 36 23
39 22 3 -1 29 -18 57 -37z m1549 10 c27 -20 44 -39 44 -51 0 -11 4 -28 10 -38
8 -16 0 -25 -50 -60 l-59 -41 -55 26 c-53 27 -54 28 -54 71 0 41 2 45 56 83
32 21 58 39 60 39 2 1 23 -13 48 -29z m-229 3 c15 -10 24 -12 20 -5 -9 14 2
16 22 3 11 -7 5 -20 -30 -60 -44 -51 -70 -68 -89 -56 -14 9 -12 42 3 48 8 3 5
12 -10 29 -40 43 -23 51 40 19 27 -14 37 -15 37 -6 0 7 -7 15 -15 19 -8 3 -15
10 -15 16 0 14 7 13 37 -7z m-117 -74 c0 -24 -4 -38 -10 -34 -5 3 -10 15 -10
26 0 17 -7 19 -65 19 -63 0 -65 -1 -65 -25 0 -14 -4 -25 -10 -25 -5 0 -10 11
-10 25 l0 25 -216 0 -215 0 3 -52 3 -53 132 0 c74 0 137 -5 142 -10 6 -6 11
-105 11 -248 1 -209 8 -277 23 -219 4 13 5 11 6 -5 1 -17 -5 -23 -19 -23 -33
0 -23 -18 13 -23 l32 -4 -35 -1 c-28 -2 -39 -8 -53 -32 -10 -16 -39 -42 -65
-57 -57 -34 -147 -38 -200 -9 -46 24 -33 32 18 12 55 -22 105 -20 157 5 46 22
93 74 93 102 0 10 3 17 8 17 4 0 5 104 2 231 l-5 231 -123 -1 c-163 -3 -172 2
-172 99 l0 70 315 0 315 0 0 -41z m-670 -44 c0 -71 26 -103 95 -116 28 -5 62
-7 78 -3 17 3 27 1 27 -6 0 -7 7 -10 15 -6 23 8 27 -27 23 -201 -2 -103 -8
-167 -17 -184 -16 -33 -77 -55 -99 -36 -8 7 -16 10 -16 8 -1 -3 -8 -1 -17 5
-22 12 -41 50 -46 93 -3 22 -16 47 -34 64 -28 26 -33 27 -141 29 -62 0 -121 0
-131 0 -14 -2 -16 2 -8 16 11 21 16 215 6 254 -6 23 -4 26 11 22 17 -4 66 21
199 101 21 13 43 21 47 19 4 -3 8 -29 8 -59z m-415 26 c3 -6 -4 -15 -15 -21
-17 -9 -20 -8 -20 10 0 20 24 28 35 11z m1245 -11 c0 -18 -3 -19 -20 -10 -22
12 -18 30 6 30 8 0 14 -9 14 -20z m-386 4 c14 -5 16 -43 16 -320 0 -300 -1
-314 -19 -324 -11 -5 -32 -10 -46 -10 -17 0 -35 -11 -51 -29 -13 -16 -48 -41
-76 -55 -65 -32 -131 -34 -198 -5 -40 17 -57 34 -99 96 -28 41 -51 85 -51 98
0 46 -7 50 -73 48 l-62 -2 1 -68 c1 -98 26 -163 89 -232 39 -42 74 -67 127
-92 68 -32 80 -34 173 -34 89 0 106 3 156 28 83 40 146 101 180 171 l29 61 2
335 3 335 40 0 40 0 0 -350 0 -350 -27 -58 c-33 -70 -114 -158 -182 -196 -154
-88 -351 -82 -502 14 -153 98 -214 231 -214 468 l0 57 150 0 150 0 0 -47 c0
-65 37 -126 90 -147 52 -21 77 -20 119 2 64 34 71 62 71 280 0 151 3 193 13
190 19 -7 22 -376 3 -421 -29 -72 -123 -113 -199 -88 -73 25 -126 95 -127 169
l0 32 -121 0 -122 0 5 -107 c7 -142 30 -203 109 -288 43 -45 81 -73 137 -101
77 -39 78 -39 197 -39 114 0 123 2 188 32 84 40 165 116 203 190 l29 58 3 338
c2 298 1 337 -13 337 -13 0 -15 -40 -15 -329 0 -182 -4 -332 -9 -335 -5 -3
-20 -30 -35 -60 -70 -143 -253 -228 -422 -197 -37 7 -93 24 -123 39 -66 32
-150 112 -181 171 -22 45 -48 216 -37 245 5 13 23 16 86 16 l80 0 6 -37 c9
-55 32 -101 76 -154 87 -105 218 -104 317 1 30 33 44 40 75 40 l37 0 0 300 0
300 -175 0 c-149 0 -175 2 -175 15 0 13 25 15 169 15 93 0 176 -3 185 -6z
m226 -308 c1 -148 -1 -271 -4 -274 -3 -3 -6 120 -6 273 0 153 2 276 5 274 2
-3 5 -126 5 -273z m-1027 249 c4 -8 2 -17 -3 -20 -12 -8 -13 -35 -2 -35 5 0
14 12 20 26 7 14 17 22 22 19 6 -4 0 -26 -15 -56 l-26 -50 -49 27 c-28 15 -50
31 -50 36 0 13 13 10 45 -12 33 -22 55 -26 55 -9 0 5 -4 8 -9 5 -5 -3 -12 1
-15 9 -3 8 -11 14 -18 13 -14 -3 -22 26 -14 48 7 18 52 18 59 -1z m1145 2 c14
-16 4 -57 -13 -57 -7 0 -18 -7 -25 -15 -18 -22 2 -19 45 6 20 12 38 19 41 16
8 -8 -88 -67 -98 -61 -11 7 -48 80 -48 94 0 21 16 9 28 -22 10 -26 14 -30 22
-18 5 9 5 19 -2 27 -5 7 -8 20 -4 28 7 18 40 20 54 2z m-260 -300 c-2 -312 -6
-281 -10 80 -2 121 0 219 5 216 4 -2 6 -136 5 -296z m-101 -99 c-1 -73 -3 -16
-3 127 0 143 2 203 3 133 2 -70 2 -187 0 -260z m-1107 -1 c0 -210 -3 -316 -10
-312 -6 4 -10 123 -10 326 0 206 -4 319 -10 319 -5 0 -10 8 -10 18 0 14 4 12
20 -8 18 -24 20 -43 20 -343z m180 348 c6 -8 41 -31 76 -52 35 -20 64 -43 64
-51 0 -12 -3 -12 -22 0 -13 8 -51 33 -85 54 -35 21 -63 45 -63 51 0 17 15 16
30 -2z m217 -107 c-1 -94 -5 -122 -16 -126 -10 -3 -12 1 -8 19 4 13 7 70 7
127 0 61 4 102 10 102 6 0 9 -46 7 -122z m1183 108 c0 -20 -157 -118 -166
-104 -4 7 -2 14 4 16 20 6 129 80 136 91 10 16 26 14 26 -3z m146 3 c8 -14
-18 -31 -30 -19 -9 9 0 30 14 30 5 0 12 -5 16 -11z m34 -329 c0 -257 -3 -330
-12 -330 -10 0 -13 68 -11 314 2 280 6 346 19 346 2 0 4 -148 4 -330z m-1670
291 c0 -10 9 -21 20 -24 11 -3 20 -10 20 -16 0 -7 -9 -9 -24 -5 -24 6 -24 5
-23 -70 2 -76 2 -76 30 -76 26 0 27 -2 27 -50 0 -33 -4 -50 -12 -50 -9 0 -8
-4 2 -10 13 -9 13 -11 0 -20 -23 -15 -33 -12 -24 8 4 9 9 36 12 60 4 41 3 42
-26 42 l-29 0 3 113 c3 130 1 117 14 117 6 0 10 -8 10 -19z m1579 -96 l-2
-115 -30 0 -29 0 5 -102 c4 -100 5 -103 28 -106 24 -3 25 -6 27 -97 3 -81 1
-95 -12 -95 -9 0 -16 6 -16 14 0 8 -9 18 -20 21 -11 3 -20 11 -20 16 0 12 7
11 30 -1 18 -10 19 -7 18 55 -2 60 -4 65 -25 65 -23 0 -23 2 -23 125 0 125 0
125 24 125 23 0 24 3 25 81 1 73 0 81 -14 69 -11 -9 -19 -10 -26 -3 -8 8 -5
13 10 18 12 3 21 15 21 26 0 10 7 19 16 19 13 0 15 -17 13 -115z m-59 -27 c0
-15 -4 -30 -10 -33 -6 -4 -10 9 -10 32 0 21 -7 49 -16 61 -8 12 -12 27 -8 33
9 15 43 -58 44 -93z m-1440 73 c0 -6 -4 -13 -10 -16 -5 -3 -10 -24 -10 -45 0
-41 -13 -59 -27 -38 -13 22 -12 39 5 74 14 31 42 47 42 25z m35 -241 c0 -149
-4 -229 -10 -227 -10 4 -20 419 -11 444 16 41 21 -11 21 -217z m1343 218 c9
-9 12 -71 12 -219 0 -173 -2 -209 -15 -219 -19 -16 -34 -5 -17 12 15 15 17
404 2 413 -12 7 -13 25 -2 25 4 0 13 -5 20 -12z m-1174 -149 c18 -21 18 -22
-8 -44 -23 -20 -27 -31 -29 -91 -1 -38 2 -91 7 -119 l8 -50 -21 20 c-19 19
-20 32 -21 215 -1 124 2 195 8 195 6 0 14 4 19 8 4 5 10 -18 13 -52 3 -39 12
-68 24 -82z m1040 130 c21 -10 23 -15 15 -36 -5 -13 -9 -102 -9 -197 0 -142
-3 -176 -15 -186 -8 -7 -15 -20 -15 -29 0 -10 -10 -28 -22 -41 -13 -14 -23
-27 -24 -30 -5 -33 -21 -68 -37 -82 -27 -24 -40 -23 -25 2 7 11 16 20 20 20 5
0 8 8 8 18 0 9 7 30 16 47 8 16 17 45 19 65 5 46 13 84 25 115 6 15 10 98 10
186 0 87 2 159 5 159 2 0 15 -5 29 -11z m-1130 -34 c3 -8 1 -15 -5 -15 -7 0
-10 -57 -8 -172 2 -125 -1 -173 -9 -176 -9 -3 -12 44 -12 181 0 101 3 187 7
190 10 11 20 8 27 -8z m1190 -4 c4 -5 7 -88 9 -185 2 -151 0 -176 -13 -176
-13 0 -15 27 -15 185 0 169 4 202 19 176z m-1393 -114 c-1 -4 -1 -41 -1 -82 0
-43 -4 -75 -10 -75 -6 0 -10 35 -10 86 0 57 4 84 11 82 6 -2 10 -7 10 -11z
m1589 -67 c0 -38 -4 -72 -10 -75 -11 -7 -11 -8 -11 80 0 82 -1 77 11 70 6 -3
10 -37 10 -75z m-1530 -80 c0 -48 -1 -50 -27 -50 -28 0 -28 -1 -29 -65 0 -66
3 -74 23 -54 7 7 13 7 17 1 5 -9 -42 -48 -49 -40 -2 2 -5 42 -7 91 l-4 87 28
0 c26 0 28 3 28 40 0 22 5 40 10 40 6 0 10 -22 10 -50z m430 -35 c0 -15 15
-42 38 -68 21 -23 50 -56 64 -74 14 -18 29 -29 33 -25 4 4 5 0 3 -8 -3 -14 2
-16 45 -19 11 -1 15 -6 11 -12 -4 -8 1 -9 16 -4 16 5 20 4 15 -4 -5 -9 6 -11
38 -9 25 2 43 6 41 9 -2 4 11 10 29 13 19 3 55 20 81 36 26 17 45 26 41 20
-10 -16 6 -12 27 7 34 31 21 -11 -14 -44 -56 -53 -95 -67 -183 -68 -69 0 -88
4 -138 29 -73 38 -117 85 -117 129 0 25 -3 29 -10 17 -9 -13 -12 -12 -25 4 -8
11 -15 32 -15 48 0 25 -4 28 -31 28 l-32 0 6 -47 c2 -27 8 -57 12 -68 6 -19 6
-19 -5 -2 -13 20 -30 124 -22 132 3 3 25 5 49 5 39 0 43 -2 43 -25z m588 -90
c-18 -18 -78 -30 -78 -16 0 6 8 11 18 11 30 0 62 29 64 58 1 22 2 21 5 -7 3
-20 -1 -39 -9 -46z m-999 9 c25 -42 26 -54 5 -54 -23 0 -43 29 -44 63 0 37 14
34 39 -9z m385 -8 c25 -66 91 -134 161 -167 50 -24 73 -29 137 -29 109 0 177
27 246 98 61 62 80 62 36 -1 -38 -53 -133 -103 -226 -119 -158 -26 -312 59
-373 204 -17 42 -19 58 -6 58 4 0 16 -20 25 -44z m1066 16 c0 -38 -36 -78 -56
-61 -12 9 -10 16 11 41 14 16 25 34 25 39 0 5 5 9 10 9 6 0 10 -13 10 -28z
m-1291 -35 c-2 -2 -32 -20 -65 -40 -34 -20 -67 -44 -74 -52 -16 -19 -32 -19
-28 -1 4 21 151 115 162 105 5 -5 8 -10 5 -12z m1193 -39 c49 -31 75 -55 70
-60 -6 -6 -28 4 -57 27 -26 20 -61 43 -76 51 -26 13 -39 34 -22 34 4 0 42 -23
85 -52z m-1162 -50 l30 -53 -30 -25 c-25 -21 -30 -32 -30 -70 0 -29 3 -40 9
-31 7 11 26 3 90 -35 49 -29 79 -54 76 -61 -2 -7 2 -13 9 -13 7 0 21 -9 31
-20 34 -38 -7 -21 -120 49 l-110 68 -3 50 c-3 48 -1 51 28 63 16 7 30 15 30
17 0 17 -46 83 -58 83 -8 0 -30 -9 -48 -21 -26 -15 -34 -17 -34 -7 0 12 70 56
92 57 4 1 21 -23 38 -51z m1124 26 c25 -14 44 -30 41 -34 -3 -5 -25 2 -48 16
l-43 24 -22 -39 c-28 -50 -28 -53 8 -74 25 -15 30 -24 30 -57 0 -34 -4 -42
-32 -56 -18 -9 -63 -37 -100 -61 -77 -49 -98 -59 -98 -46 0 6 45 38 100 73 94
58 100 64 100 95 0 27 -6 38 -30 52 -17 9 -29 20 -28 23 17 34 64 110 69 110
4 0 27 -12 53 -26z m-1426 -31 c-2 -10 -14 -20 -28 -22 -25 -3 -25 -3 -6 18
23 26 39 27 34 4z m277 -20 c5 -20 2 -31 -11 -40 -23 -17 -58 2 -51 28 3 10 0
19 -6 19 -17 0 5 17 28 22 27 6 32 3 40 -29z m1128 23 c3 3 14 1 24 -5 10 -6
12 -11 6 -11 -7 0 -13 -9 -13 -20 0 -25 -32 -44 -48 -28 -14 14 -16 38 -3 38
5 0 11 -5 13 -12 2 -6 10 -8 16 -4 19 11 14 26 -8 26 -12 0 -20 7 -20 16 0 13
3 14 13 5 8 -6 16 -8 20 -5z m273 -6 c8 0 14 -4 14 -10 0 -15 -36 -12 -49 4
-9 11 -9 15 1 19 7 2 15 0 16 -4 2 -5 10 -9 18 -9z m-597 -16 c-41 -45 -125
-93 -191 -110 -73 -19 -172 -14 -215 11 -27 16 -27 16 -3 10 143 -36 319 4
400 90 13 14 26 25 28 25 3 0 -5 -12 -19 -26z m-931 -105 c3 -45 3 -46 -52
-82 -31 -20 -59 -37 -64 -37 -4 0 -24 11 -45 25 -25 18 -37 33 -37 50 0 13 -4
26 -9 30 -15 9 31 71 69 93 l35 21 50 -27 c48 -26 50 -29 53 -73z m1482 76
c22 -14 40 -32 40 -40 0 -8 7 -18 15 -22 10 -6 13 -19 9 -45 -5 -28 -16 -43
-45 -64 -44 -30 -53 -29 -124 23 -38 28 -40 32 -37 74 3 41 7 47 50 71 26 14
48 26 50 27 1 0 20 -10 42 -24z m-1284 -42 c4 -10 7 -21 6 -25 -2 -7 169 -108
257 -153 40 -20 51 -29 42 -38 -8 -8 -18 -7 -39 4 -205 116 -282 165 -282 180
0 10 -3 24 -6 33 -8 22 12 20 22 -1z m947 -50 c-5 -2 -74 -41 -153 -88 -80
-47 -148 -85 -152 -85 -5 0 -8 6 -8 13 1 6 66 50 146 96 104 60 149 91 157
110 l11 26 4 -35 c2 -19 0 -36 -5 -37z m-1073 22 c0 -2 -9 -9 -20 -15 -18 -9
-20 -8 -20 15 0 23 2 24 20 15 11 -6 20 -13 20 -15z m1240 -1 c0 -17 -26 -19
-36 -3 -7 12 15 31 28 23 4 -3 8 -12 8 -20z m-1153 -130 c32 -20 69 -44 83
-53 14 -9 41 -23 60 -31 19 -7 40 -18 45 -24 16 -19 114 -76 130 -76 7 0 17
-5 20 -11 5 -7 14 -5 30 5 21 14 22 13 21 -7 -1 -12 -8 -21 -15 -19 -7 1 -11
-1 -8 -5 2 -5 7 -16 10 -26 5 -14 11 -16 27 -7 15 8 20 22 21 58 1 26 4 61 8
77 6 28 7 27 14 -19 13 -92 10 -110 -24 -130 -25 -15 -33 -16 -39 -6 -5 7 -16
14 -27 15 -25 3 -73 26 -73 37 0 4 -3 8 -7 7 -15 -2 -53 13 -53 21 0 5 -9 12
-21 15 -11 4 -53 26 -92 49 -40 23 -94 53 -120 66 -27 14 -62 37 -79 52 -17
15 -40 30 -50 34 -22 7 -22 13 0 40 28 33 45 34 64 2 10 -15 44 -44 75 -64z
m1148 70 c14 -15 25 -31 25 -35 0 -14 -53 -45 -295 -174 -38 -21 -79 -46 -90
-55 -34 -30 -114 -72 -124 -66 -5 4 -16 -1 -24 -9 -14 -13 -19 -13 -45 2 l-30
17 5 88 4 88 -58 1 -58 2 60 7 60 7 40 -45 41 -45 71 41 c39 23 76 42 82 42 6
0 11 5 11 10 0 6 5 10 10 10 19 0 10 -25 -13 -36 -12 -6 -54 -28 -94 -50 l-71
-39 -36 40 -35 40 6 -75 c4 -50 10 -79 21 -87 22 -18 34 -5 27 28 -6 26 -4 29
17 29 13 0 37 7 53 16 17 9 42 23 56 31 15 7 32 19 38 27 6 7 30 21 53 31 24
11 63 33 88 50 25 18 67 45 93 60 27 15 54 39 59 51 14 31 23 30 53 -2z
m-1297 -76 c20 -12 43 -29 52 -38 9 -9 117 -74 240 -144 124 -71 232 -135 240
-143 44 -40 -40 3 -307 159 -198 115 -290 174 -281 179 18 12 16 12 56 -13z
m1370 14 c8 -6 -87 -67 -281 -180 -259 -152 -346 -197 -311 -162 12 12 524
310 532 310 4 0 13 9 20 20 13 22 20 24 40 12z m-1434 -43 c6 -5 3 -16 -8 -28
-17 -19 -18 -19 -56 2 -59 31 -58 45 3 39 29 -2 56 -8 61 -13z m858 4 c-10 -4
-10 -10 3 -30 23 -34 12 -40 -14 -7 -22 28 -20 44 7 43 11 0 13 -2 4 -6z m681
-1 c5 -2 -8 -13 -28 -23 -27 -15 -40 -17 -55 -9 -21 11 -25 22 -13 34 7 7 82
6 96 -2z m-874 -34 c-1 -7 -24 -34 -53 -60 l-52 -47 -72 42 c-39 23 -72 48
-72 56 0 11 4 11 23 -1 12 -8 44 -27 70 -43 l49 -28 46 47 c48 47 63 56 61 34z
m-600 -14 c10 -9 -13 -24 -30 -19 -14 5 -19 2 -19 -12 0 -13 56 -51 198 -133
108 -63 252 -149 320 -192 68 -43 126 -78 129 -78 3 0 17 -9 32 -19 l27 -20
185 115 c101 63 262 161 356 217 119 70 173 107 173 120 0 17 -15 24 -22 9 -1
-5 -110 -71 -240 -148 -131 -76 -238 -145 -238 -152 0 -15 -32 -12 -37 3 -2 6
6 15 17 20 10 6 117 69 236 140 120 72 222 132 228 134 6 2 18 10 27 18 23 20
49 6 49 -27 0 -24 -11 -34 -92 -81 -51 -29 -163 -95 -248 -148 -85 -52 -209
-127 -275 -167 l-119 -73 -31 18 c-16 11 -91 56 -165 101 -74 45 -224 135
-332 198 -192 113 -198 117 -198 148 0 18 6 35 13 37 11 5 47 -1 56 -9z m691
-30 c11 -13 10 -18 -7 -35 -18 -18 -23 -19 -42 -8 -20 13 -28 39 -14 52 12 13
50 7 63 -9z m-483 -107 c166 -99 221 -137 197 -137 -5 0 -92 50 -194 110 -102
61 -188 110 -192 110 -5 0 -8 7 -8 16 0 20 -18 28 197 -99z m437 42 c20 -10
29 -9 43 2 17 13 17 13 3 -5 -8 -10 -13 -29 -12 -41 2 -14 -3 -25 -13 -29 -25
-9 -37 3 -31 29 4 15 0 30 -10 39 -18 19 -14 20 20 5z m62 -146 c40 -34 44
-41 44 -84 0 -45 -2 -48 -47 -77 l-46 -30 -41 26 c-52 34 -56 39 -56 84 0 30
7 44 43 77 23 22 46 41 50 41 5 0 28 -17 53 -37z m-236 -44 c0 6 11 6 30 0 24
-9 30 -17 30 -40 0 -34 -6 -35 -40 -12 -14 10 -31 18 -39 20 -20 3 -34 20 -27
32 5 8 13 8 27 1 12 -7 19 -7 19 -1z m353 -24 c3 -19 -1 -29 -15 -36 -18 -9
-19 -8 -16 18 2 22 13 42 24 43 1 0 4 -11 7 -25z"/>
<path d="M1468 2509 c-41 -31 -39 -83 4 -120 l33 -26 32 24 c28 22 33 32 33
67 0 35 -4 43 -31 59 -38 21 -38 21 -71 -4z m60 -52 c4 -21 -27 -35 -38 -17
-12 19 0 42 19 38 9 -2 17 -11 19 -21z"/>
<path d="M688 2039 c-39 -29 -36 -66 7 -102 l34 -28 40 21 c55 27 57 65 7 104
-41 31 -52 32 -88 5z m62 -50 c0 -20 -24 -26 -35 -9 -4 6 -4 17 -1 25 7 20 36
7 36 -16z"/>
<path d="M2238 2032 c-52 -38 -52 -74 1 -101 l38 -20 42 27 c49 32 54 61 15
97 -33 31 -49 30 -96 -3z m65 -48 c-3 -8 -11 -14 -18 -14 -18 0 -26 25 -12 39
14 14 38 -5 30 -25z"/>
<path d="M708 1132 c-29 -17 -48 -51 -48 -86 0 -16 10 -28 33 -41 33 -18 34
-17 75 10 35 23 42 33 42 61 0 29 -5 36 -38 53 -35 18 -40 18 -64 3z m40 -69
c-5 -26 -38 -29 -38 -4 0 15 6 21 21 21 14 0 19 -5 17 -17z"/>
<path d="M2233 1122 c-26 -13 -33 -23 -32 -47 0 -24 8 -35 43 -57 53 -34 61
-34 91 -3 33 32 31 56 -4 94 -33 35 -51 37 -98 13z m72 -62 c0 -8 -8 -16 -17
-18 -13 -2 -18 3 -18 18 0 15 5 20 18 18 9 -2 17 -10 17 -18z"/>
<path d="M1473 611 c-38 -32 -45 -84 -15 -108 40 -32 48 -33 84 -8 30 20 35
30 33 55 -2 27 -48 91 -64 90 -3 -1 -21 -13 -38 -29z m54 -57 c8 -21 -13 -42
-28 -27 -13 13 -5 43 11 43 6 0 13 -7 17 -16z"/>
<path d="M668 2197 c-32 -17 -58 -38 -58 -45 0 -16 -1 -16 68 22 28 16 52 35
52 43 0 17 5 18 -62 -20z"/>
<path d="M2290 2218 c0 -8 25 -28 56 -46 40 -23 55 -28 52 -16 -4 21 -108 80
-108 62z"/>
<path d="M2345 872 c-27 -15 -51 -35 -53 -45 -3 -17 2 -16 45 9 59 34 66 40
62 53 -2 6 -25 -1 -54 -17z"/>
<path d="M2109 2694 c-19 -23 -4 -42 86 -102 142 -94 173 -119 318 -262 142
-138 136 -133 106 -90 -71 104 -269 284 -421 383 -70 45 -93 67 -70 67 14 0
151 -97 247 -175 91 -74 173 -155 235 -232 18 -24 35 -41 37 -39 16 16 -117
168 -257 292 -90 81 -229 174 -258 174 -5 0 -15 -7 -23 -16z"/>
<path d="M1933 2645 c-25 -18 -36 -52 -20 -66 7 -6 71 -44 142 -86 72 -42 132
-79 135 -82 3 -4 22 -15 42 -26 36 -19 38 -19 57 0 24 20 27 49 9 65 -30 25
-90 60 -103 60 -8 0 -18 6 -22 13 -4 7 -19 18 -33 25 -34 16 -59 32 -93 60
-16 12 -34 22 -42 22 -7 0 -18 7 -25 15 -15 19 -20 19 -47 0z m37 -46 c-10
-18 -40 -16 -40 3 0 5 5 6 12 2 7 -4 8 -3 4 4 -12 19 3 35 20 21 10 -8 11 -16
4 -30z m55 -9 c-3 -6 1 -7 9 -4 20 8 20 -6 1 -32 -13 -17 -14 -17 -15 -2 0 12
-5 15 -16 11 -14 -5 -15 -3 -5 15 7 12 16 22 22 22 6 0 7 -4 4 -10z m75 -52
c0 -18 -20 -47 -20 -30 0 6 -8 12 -17 12 -16 1 -16 2 1 15 24 18 36 19 36 3z
m60 -30 c0 -17 -20 -47 -20 -31 0 7 -7 10 -15 7 -20 -8 -19 6 3 22 22 17 32
17 32 2z m67 -51 c-3 -10 -47 -19 -47 -10 0 3 5 13 11 24 8 16 13 18 25 8 8
-7 13 -17 11 -22z m63 -27 c13 -8 13 -10 -2 -10 -9 0 -18 -7 -20 -15 -2 -10
-8 -12 -17 -5 -12 7 -12 11 -2 24 16 18 21 19 41 6z"/>
<path d="M596 2509 c-59 -47 -176 -170 -209 -222 -28 -43 -14 -43 18 0 16 21
76 84 134 141 57 56 100 102 94 102 -6 0 -22 -9 -37 -21z"/>
<path d="M654 2507 c-7 -7 -42 -39 -79 -71 -65 -57 -199 -206 -192 -213 6 -6
288 278 285 287 -2 4 -8 3 -14 -3z"/>
<path d="M2627 2112 c-21 -23 -21 -36 -1 -53 9 -8 28 -31 41 -52 34 -54 40
-39 12 29 -18 46 -24 53 -30 38 -6 -17 -7 -17 -14 -2 -7 19 1 38 16 38 5 0 25
-32 44 -72 21 -43 35 -63 35 -50 0 51 -51 142 -80 142 -4 0 -14 -8 -23 -18z"/>
<path d="M348 2113 c6 -2 12 -9 12 -14 0 -14 -28 -11 -33 4 -3 8 -7 6 -12 -6
-5 -12 -1 -23 11 -32 23 -17 40 -14 36 8 -1 8 2 18 8 22 5 3 10 1 10 -6 0 -7
3 -9 6 -6 10 10 -16 37 -35 36 -10 0 -11 -2 -3 -6z"/>
<path d="M300 2048 c0 -7 -3 -24 -6 -38 -5 -23 -4 -22 12 5 23 40 30 16 8 -27
l-17 -33 22 19 c27 24 27 62 1 76 -15 8 -20 8 -20 -2z"/>
<path d="M284 1885 c-16 -12 -17 -17 -6 -35 8 -14 10 -26 4 -33 -20 -26 -4
-137 20 -137 4 0 16 13 27 28 15 21 19 40 16 71 -2 24 -6 46 -9 49 -3 3 -1 11
5 18 23 27 -27 61 -57 39z m46 -20 c0 -8 -9 -15 -20 -15 -11 0 -20 7 -20 15 0
8 9 15 20 15 11 0 20 -7 20 -15z m-3 -70 c0 -8 -8 -15 -18 -15 -22 0 -34 16
-17 23 24 10 35 7 35 -8z m3 -50 c0 -8 -9 -15 -20 -15 -11 0 -20 7 -20 15 0 8
9 15 20 15 11 0 20 -7 20 -15z"/>
<path d="M2720 1863 c0 -15 -5 -20 -18 -16 -20 5 -49 -38 -38 -56 4 -6 2 -19
-3 -30 -8 -14 -7 -22 4 -31 8 -7 15 -19 15 -26 0 -24 26 -15 40 14 13 28 18
147 7 159 -4 3 -7 -3 -7 -14z m0 -58 c0 -13 -12 -14 -48 -6 -2 1 0 6 3 11 10
16 45 12 45 -5z m0 -49 c0 -18 -37 -28 -44 -11 -6 17 3 25 26 25 10 0 18 -6
18 -14z"/>
<path d="M369 1673 c-1 -16 -2 -32 -4 -38 -1 -5 -3 -20 -3 -32 -2 -28 -22 -31
-22 -3 0 11 5 20 10 20 6 0 3 11 -7 25 -19 25 -62 34 -64 13 -3 -33 -4 -227
-1 -218 2 5 15 7 28 4 19 -5 24 -2 24 13 0 10 5 24 12 31 8 8 8 15 -2 26 -13
17 -7 46 10 46 5 0 10 -17 11 -37 1 -21 5 -49 9 -63 5 -15 8 26 9 108 1 72 -1
132 -4 132 -3 0 -6 -12 -6 -27z m-42 -43 c-1 -13 -6 -19 -15 -15 -7 3 -19 5
-25 5 -13 1 22 30 34 30 4 0 7 -9 6 -20z m1 -58 c2 -7 -7 -12 -22 -12 -24 0
-33 10 -20 22 9 10 38 2 42 -10z m2 -77 c0 -9 -9 -15 -25 -15 -16 0 -25 6 -25
15 0 9 9 15 25 15 16 0 25 -6 25 -15z"/>
<path d="M2631 1536 c1 -81 5 -142 10 -135 4 8 12 10 16 5 4 -4 0 -14 -10 -21
-13 -9 -15 -14 -5 -17 8 -3 14 -25 15 -64 1 -32 2 -62 2 -66 1 -4 11 -12 22
-19 17 -9 25 -8 37 5 21 21 26 319 6 352 -10 18 -10 25 2 42 21 31 6 57 -33
57 -18 0 -33 -4 -33 -9 0 -4 -7 -3 -15 4 -14 12 -16 -3 -14 -134z m75 111 c8
3 14 -1 14 -11 0 -9 -8 -16 -20 -16 -14 0 -20 6 -19 23 0 12 3 17 5 10 3 -7
12 -9 20 -6z m-21 -58 c-11 -17 -35 -9 -35 11 0 18 3 19 20 10 11 -6 18 -15
15 -21z m33 -41 c2 -12 -3 -14 -23 -11 -14 3 -25 9 -25 12 0 24 43 22 48 -1z
m2 -52 c0 -8 -5 -18 -10 -21 -13 -8 -42 14 -34 26 9 15 44 10 44 -5z m0 -60
c0 -16 -19 -25 -37 -18 -23 8 -14 32 12 32 15 0 25 -6 25 -14z m0 -66 c0 -21
-33 -29 -45 -10 -9 15 4 30 26 30 12 0 19 -7 19 -20z m0 -66 c0 -8 -10 -14
-25 -14 -23 0 -34 18 -19 32 10 10 44 -4 44 -18z m0 -49 c0 -9 -9 -15 -25 -15
-16 0 -25 6 -25 15 0 9 9 15 25 15 16 0 25 -6 25 -15z"/>
<path d="M292 1411 c-20 -12 -25 -170 -7 -188 19 -18 29 -16 51 10 19 22 19
22 -1 5 -15 -12 -25 -14 -38 -7 -21 12 -23 33 -2 26 8 -4 17 -2 20 4 4 5 10 7
15 4 11 -7 19 97 8 110 -4 5 -8 17 -8 27 0 19 -16 23 -38 9z m38 -46 c0 -21
-30 -31 -40 -14 -11 17 -3 29 21 29 10 0 19 -7 19 -15z m0 -60 c0 -8 -9 -15
-20 -15 -11 0 -20 7 -20 15 0 8 9 15 20 15 11 0 20 -7 20 -15z"/>
<path d="M2381 733 c-59 -66 -68 -94 -13 -40 35 34 79 97 68 97 -2 0 -27 -26
-55 -57z"/>
<path d="M446 723 c21 -27 56 -64 78 -83 23 -20 9 0 -34 48 -40 45 -76 82 -78
82 -2 0 14 -21 34 -47z"/>
<path d="M550 752 c14 -29 81 -104 87 -98 3 2 -9 19 -25 38 -17 18 -40 44 -52
58 -21 24 -21 24 -10 2z"/>
<path d="M2460 764 c0 -5 -23 -34 -50 -64 -57 -65 -57 -81 1 -24 40 38 65 81
54 92 -3 3 -5 1 -5 -4z"/>
<path d="M2470 638 c-58 -56 -96 -97 -85 -91 32 18 210 194 194 193 -2 -1 -51
-46 -109 -102z"/>
<path d="M2542 655 c-45 -47 -78 -85 -73 -85 9 0 93 86 136 138 46 55 22 35
-63 -53z"/>
<path d="M400 723 c0 -12 118 -139 123 -133 3 3 -24 35 -59 73 -35 37 -64 64
-64 60z"/>
<path d="M708 653 c-32 -38 -31 -44 12 -84 23 -21 50 -39 60 -39 9 0 23 -7 30
-15 7 -9 19 -14 26 -11 7 3 20 -6 29 -20 9 -14 26 -29 38 -34 12 -5 40 -21 62
-35 22 -13 54 -31 71 -39 17 -8 35 -19 38 -25 4 -5 13 -8 21 -4 9 3 23 -5 34
-18 16 -21 22 -22 45 -11 14 6 26 16 26 22 0 5 16 1 35 -10 58 -33 39 -8 -27
36 -73 48 -183 114 -191 114 -3 0 -62 36 -131 80 -70 44 -131 80 -136 80 -5 0
-13 7 -18 15 -7 14 -10 14 -24 -2z m32 -21 c0 -14 -36 -43 -43 -35 -4 3 0 15
10 25 17 19 33 24 33 10z m47 -37 c22 -22 0 -49 -27 -33 -14 9 -16 15 -7 30
14 22 15 22 34 3z m73 -45 c0 -12 -40 -33 -47 -26 -9 8 28 47 38 40 5 -3 9 -9
9 -14z m47 -41 c-4 -16 -3 -18 9 -8 8 7 14 7 14 1 0 -15 -28 -35 -40 -27 -13
8 -13 28 2 43 17 17 21 15 15 -9z m71 -49 c-1 -16 -2 -30 -4 -30 -1 0 -9 3
-18 6 -12 5 -13 10 -4 30 15 33 27 30 26 -6z m62 -21 c0 -5 5 -7 10 -4 12 7
13 -5 2 -23 -5 -7 -16 -10 -25 -6 -17 6 -22 25 -10 37 10 10 23 8 23 -4z m80
-39 c0 -5 -4 -10 -10 -10 -5 0 -10 -7 -10 -15 0 -17 -16 -20 -24 -6 -10 16 5
41 25 41 10 0 19 -4 19 -10z m54 -29 c9 -14 -4 -41 -20 -41 -8 0 -14 8 -14 18
0 29 22 43 34 23z"/>
<path d="M2100 544 c-63 -42 -122 -78 -130 -82 -34 -15 -80 -47 -80 -54 0 -4
7 -8 15 -8 8 0 15 -5 15 -10 0 -6 12 -15 27 -21 21 -8 30 -6 48 11 12 11 24
18 26 15 3 -2 18 7 33 20 16 14 34 25 39 25 6 0 19 8 29 17 11 9 24 18 31 19
19 3 106 63 116 81 9 17 -23 64 -43 62 -6 0 -63 -34 -126 -75z m130 41 c0 -8
5 -15 11 -15 8 0 8 -5 -1 -15 -7 -8 -16 -15 -21 -15 -11 0 -22 38 -14 50 9 15
25 12 25 -5z m-50 -62 c0 -8 -4 -11 -10 -8 -5 3 -10 0 -10 -7 0 -8 -5 -7 -16
4 -14 14 -14 18 -3 31 16 17 39 5 39 -20z m-136 -69 c8 -22 8 -26 -4 -19 -5 3
-10 -2 -10 -12 -1 -17 -2 -17 -15 1 -17 23 -20 40 -5 31 6 -3 10 -1 10 4 0 17
17 13 24 -5z m-70 -41 c9 -23 -12 -43 -24 -23 -5 8 -10 21 -10 28 0 18 27 15
34 -5z"/>
<path d="M1880 451 c0 -6 -6 -11 -12 -11 -7 0 -26 -12 -43 -26 l-30 -26 50 28
c61 33 58 31 46 39 -6 3 -11 1 -11 -4z"/>
<path d="M1840 380 c-14 -11 -29 -20 -35 -20 -19 -1 -58 -37 -47 -44 5 -3 12
1 16 9 3 8 12 15 21 15 8 0 23 8 33 18 10 9 27 22 38 29 10 6 15 12 9 12 -5 0
-21 -8 -35 -19z"/>
<path d="M2193 374 c-24 -14 -43 -27 -43 -30 0 -7 78 35 85 46 9 14 5 13 -42
-16z"/>
</g>
</svg>
