<?xml version="1.0" standalone="no"?>
<!DOCTYPE svg PUBLIC "-//W3C//DTD SVG 20010904//EN"
 "http://www.w3.org/TR/2001/REC-SVG-20010904/DTD/svg10.dtd">
<svg version="1.0" xmlns="http://www.w3.org/2000/svg"
 width="450.000000pt" height="450.000000pt" viewBox="0 0 450.000000 450.000000"
 preserveAspectRatio="xMidYMid meet">
<metadata>
Created by potrace 1.10, written by Peter Selinger 2001-2011
</metadata>
<g transform="translate(0.000000,450.000000) scale(0.100000,-0.100000)"
fill="#000000" stroke="none">
<path d="M2148 4284 c-4 -5 -37 -11 -75 -12 -37 -2 -72 -8 -77 -13 -6 -5 98
-9 275 -8 254 1 277 3 217 13 -36 7 -125 12 -197 12 -75 -1 -132 3 -134 9 -2
5 -6 5 -9 -1z"/>
<path d="M1995 4219 c36 -11 469 -11 540 1 30 4 -74 8 -260 8 -204 0 -300 -3
-280 -9z"/>
<path d="M2228 4093 c6 -2 12 -9 12 -14 0 -4 -7 -6 -15 -2 -10 3 -26 -6 -43
-24 -15 -16 -90 -65 -167 -108 -174 -97 -255 -145 -278 -164 -22 -18 -34 -7
-16 16 13 16 12 17 -3 4 -10 -7 -18 -19 -18 -27 0 -17 -127 -84 -148 -77 -13
4 -14 3 -3 -5 10 -7 7 -13 -15 -24 -16 -8 -45 -24 -64 -35 -177 -103 -387
-221 -442 -249 -36 -18 -69 -38 -73 -44 -3 -6 -11 -8 -16 -5 -5 4 -9 1 -9 -4
0 -6 -6 -11 -13 -11 -18 0 -60 -58 -52 -71 9 -14 -3 -59 -16 -59 -6 0 -7 6 -2
13 19 31 -1 77 -34 77 -18 0 -55 -39 -48 -50 10 -16 -5 -50 -21 -50 -8 0 -18
-8 -21 -17 -4 -10 -13 -22 -20 -28 -9 -7 -12 -46 -11 -145 6 -631 2 -1135 -8
-1126 -7 6 -10 13 -8 15 2 2 -3 16 -11 31 -8 15 -14 36 -14 46 0 10 -4 40 -9
65 -5 26 -8 56 -7 68 1 11 -2 21 -6 21 -10 0 -4 430 6 477 4 18 4 41 0 50 -16
39 -27 -46 -32 -246 -6 -225 3 -320 43 -472 14 -52 29 -110 34 -129 5 -19 10
-109 10 -198 l0 -164 32 -32 c18 -18 31 -41 30 -50 -4 -20 22 -53 50 -62 12
-3 27 1 39 12 18 16 19 16 19 0 0 -9 11 -28 24 -41 13 -13 22 -26 20 -28 -2
-2 2 -4 8 -4 7 0 63 -31 123 -70 61 -38 186 -113 278 -168 103 -60 163 -101
156 -106 -7 -4 -2 -7 12 -6 20 1 118 -52 299 -163 8 -5 49 -29 90 -53 163 -94
189 -111 184 -119 -3 -5 -2 -8 3 -7 18 4 73 -24 66 -34 -4 -6 -1 -7 6 -3 7 5
20 1 29 -7 9 -8 38 -26 63 -40 35 -21 48 -24 57 -15 7 7 12 9 12 5 0 -4 12 3
27 17 14 14 42 33 62 43 20 10 38 21 39 26 2 4 8 7 13 7 5 0 42 22 82 49 39
27 196 122 347 212 151 89 375 222 497 296 123 73 227 133 233 133 5 0 10 5
10 10 0 6 6 10 13 10 8 0 22 15 32 34 16 29 20 32 32 20 30 -29 98 8 89 49 -2
9 5 23 16 31 46 32 51 52 49 180 -1 66 3 157 8 201 6 49 6 84 0 91 -5 7 -9
267 -9 643 l1 632 -32 37 c-18 20 -35 37 -38 37 -3 0 -5 11 -3 24 2 13 -5 32
-14 42 -18 20 -59 26 -69 9 -3 -5 -23 9 -44 30 -21 22 -44 40 -50 40 -6 0 -11
4 -11 8 0 5 -6 9 -12 9 -7 0 -60 27 -118 60 -58 33 -168 95 -245 138 -77 44
-143 84 -147 90 -4 5 -8 7 -8 2 0 -4 -17 3 -37 16 -21 13 -69 41 -108 61 -38
20 -86 47 -106 59 -47 28 -185 108 -317 182 -56 32 -101 60 -98 63 3 2 49 -20
103 -50 192 -108 270 -148 276 -142 4 4 -10 16 -30 26 -20 11 -43 26 -51 35
-8 8 -38 25 -66 39 -46 21 -128 66 -167 90 -20 12 -39 16 -73 15 -18 0 -38 8
-48 19 -10 11 -25 21 -33 21 -28 3 -33 4 -41 12 -4 4 -12 7 -18 6 -6 0 -5 -3
2 -6z m101 -70 c96 -60 134 -82 161 -95 14 -7 43 -25 65 -39 22 -14 96 -57
165 -94 153 -83 343 -190 390 -220 44 -28 343 -200 435 -250 81 -44 85 -48 85
-96 0 -23 7 -42 20 -54 11 -10 20 -30 20 -45 0 -15 9 -35 20 -45 18 -17 20
-31 20 -187 0 -105 -4 -168 -10 -168 -6 0 -10 61 -10 164 0 134 -3 166 -15
176 -8 7 -18 29 -21 50 -6 36 -11 40 -125 105 -109 61 -119 70 -119 96 0 16 5
29 10 29 6 0 10 -10 10 -22 0 -18 19 -34 91 -75 l90 -52 -3 27 c-2 21 -16 34
-68 62 -108 60 -178 99 -330 185 -80 45 -165 93 -190 107 -25 14 -115 65 -200
114 -85 48 -200 113 -255 144 -55 32 -146 85 -202 118 l-103 61 -77 -46 c-43
-26 -303 -175 -578 -332 l-500 -286 3 -35 c2 -35 2 -35 -115 -101 -104 -58
-118 -70 -124 -97 -4 -18 -12 -38 -18 -46 -8 -10 -11 -222 -11 -801 0 -692 1
-790 15 -805 8 -9 15 -26 15 -37 0 -26 16 -39 137 -108 76 -43 102 -64 106
-82 2 -13 0 -26 -4 -29 -5 -3 -9 4 -9 14 0 14 -27 36 -92 75 -93 55 -93 55
-96 30 -4 -31 -17 -21 257 -184 124 -73 343 -203 486 -287 143 -85 280 -166
305 -180 25 -14 74 -44 110 -67 36 -23 93 -59 127 -79 l62 -37 113 72 c115 74
907 549 1121 673 98 57 117 72 117 92 0 13 -2 24 -4 24 -2 0 -42 -22 -88 -48
-52 -30 -84 -55 -86 -68 -7 -37 -24 -41 -20 -4 3 33 9 38 117 100 95 55 116
71 123 95 4 17 14 35 22 41 13 9 15 96 17 627 0 362 5 617 10 617 11 0 11 55
9 -640 -1 -574 -2 -596 -21 -616 -10 -11 -19 -30 -19 -42 0 -12 -9 -27 -20
-34 -11 -7 -20 -24 -20 -38 0 -55 -12 -70 -84 -112 -307 -178 -1071 -638
-1203 -726 l-82 -54 -178 109 c-98 61 -265 161 -372 224 -106 63 -333 197
-505 299 l-311 185 -3 44 c-2 25 -12 56 -23 69 -10 14 -19 32 -19 42 0 9 -9
25 -20 35 -20 18 -20 31 -20 805 0 754 1 788 19 811 10 13 22 39 26 57 4 18
13 36 21 39 9 3 14 21 14 52 l0 46 73 41 c214 123 869 495 909 518 94 52 264
154 318 189 30 20 60 36 67 36 6 1 39 -16 72 -36z m121 -174 c180 -104 197
-115 188 -124 -3 -3 -87 42 -187 100 -100 58 -186 105 -190 105 -5 0 -95 -52
-202 -116 -107 -64 -327 -194 -489 -288 -162 -95 -307 -180 -322 -190 -29 -19
-36 -12 -15 14 7 9 95 64 197 123 102 59 327 190 500 291 173 102 322 185 330
185 8 1 94 -44 190 -100z m-190 42 c0 -5 -7 -11 -15 -15 -15 -5 -20 5 -8 17 9
10 23 9 23 -2z m64 -22 c20 -19 -1 -17 -29 2 -28 19 -28 20 -5 14 14 -4 29
-11 34 -16z m-129 -19 c-3 -5 -11 -10 -16 -10 -6 0 -7 5 -4 10 3 6 11 10 16
10 6 0 7 -4 4 -10z m135 -46 l70 -47 0 -76 -1 -76 -70 -58 -70 -58 -32 27
c-111 93 -107 86 -107 173 0 67 3 81 18 85 9 3 40 21 67 40 28 19 51 35 53 35
1 1 34 -20 72 -45z m50 26 c0 -5 -7 -7 -15 -4 -8 4 -15 8 -15 10 0 2 7 4 15 4
8 0 15 -4 15 -10z m-267 -27 c4 -3 1 -14 -7 -22 -8 -9 -17 -38 -19 -65 -4 -39
-9 -52 -28 -62 -13 -7 -28 -10 -33 -7 -5 4 -6 2 -3 -4 3 -5 -38 -32 -91 -59
-53 -27 -98 -52 -100 -56 -5 -12 -40 -10 -47 2 -6 10 7 14 33 11 6 -1 12 2 12
7 0 5 36 30 79 56 43 25 85 53 92 62 16 19 21 44 8 44 -5 0 -9 9 -9 20 0 13 9
22 25 26 14 3 23 10 20 14 -3 5 8 11 25 15 17 4 28 11 24 16 -6 10 9 12 19 2z
m335 -10 c15 -10 29 -20 32 -23 3 -3 18 -11 34 -18 l29 -13 -23 -24 -22 -24
66 -48 c36 -26 101 -67 144 -90 42 -23 76 -47 74 -53 -1 -6 2 -9 8 -5 6 4 46
-15 91 -42 125 -75 185 -110 247 -143 24 -13 46 -28 48 -34 2 -6 20 -12 39
-13 31 -3 37 1 53 33 16 32 20 34 32 19 12 -14 10 -19 -16 -40 -29 -23 -29
-23 -10 -44 11 -12 26 -21 35 -21 21 0 66 32 67 48 1 6 2 17 3 23 0 6 15 -1
32 -15 17 -14 34 -26 39 -26 5 0 15 -6 22 -12 7 -7 43 -28 80 -47 60 -31 67
-38 78 -78 7 -24 16 -43 21 -43 5 0 8 -30 7 -68 0 -37 2 -77 6 -90 4 -13 3
-22 -3 -22 -10 0 -6 -144 6 -163 3 -6 1 -7 -5 -3 -7 4 -12 3 -12 -3 0 -5 4
-12 9 -16 5 -3 8 -31 5 -63 -4 -50 -6 -574 -3 -980 1 -111 -2 -147 -13 -160
-8 -9 -20 -31 -27 -47 -6 -17 -24 -36 -39 -42 -37 -16 -123 -65 -140 -80 -7
-7 -22 -13 -33 -13 -11 0 -18 -4 -14 -9 3 -5 1 -12 -3 -15 -5 -3 -14 6 -20 19
-7 14 -20 25 -29 25 -17 -1 -17 -1 0 -14 13 -10 17 -24 15 -47 -3 -28 -11 -37
-63 -67 -99 -57 -462 -274 -580 -347 -60 -38 -188 -115 -283 -173 l-173 -104
-246 148 c-134 82 -378 228 -541 324 l-297 176 -3 38 c-2 28 1 42 13 48 8 5
13 14 9 19 -10 17 -57 -38 -50 -58 6 -15 4 -15 -16 3 -24 21 -65 48 -161 107
-106 64 -98 -2 -102 860 -2 421 1 747 6 747 5 0 5 10 1 23 -9 25 -5 57 8 57 4
0 11 16 14 35 4 20 13 35 21 35 7 0 15 6 18 13 2 6 8 9 12 5 4 -4 3 -13 -2
-20 -6 -7 -12 -35 -13 -63 -3 -90 -4 -95 -12 -95 -12 0 -10 -44 3 -57 9 -9 8
-16 -5 -28 -29 -29 -9 -85 30 -85 21 0 29 9 25 33 -2 11 37 8 44 -3 4 -6 25
-20 48 -31 32 -17 45 -19 59 -10 24 15 49 14 42 -2 -2 -7 4 -24 16 -37 11 -13
20 -20 20 -16 0 4 6 2 13 -4 6 -6 41 -29 77 -51 36 -21 61 -39 55 -39 -5 0 3
-7 19 -15 15 -8 37 -15 48 -15 12 0 17 -4 12 -12 -4 -6 4 -3 18 8 14 10 24 22
22 26 -2 4 1 10 7 14 8 4 7 9 -2 15 -12 7 -11 13 3 36 9 15 20 29 25 30 11 4
10 -225 -1 -249 -5 -11 -1 -26 11 -42 22 -31 24 -31 50 -6 20 18 21 27 19 194
l-3 175 -33 38 c-19 21 -35 37 -37 36 -9 -8 -34 -1 -47 13 -20 20 -122 22
-110 2 3 -4 0 -8 -5 -8 -6 0 -11 -10 -11 -22 0 -28 -52 -60 -84 -52 -24 6 -34
44 -11 44 8 0 22 11 31 25 9 14 25 25 36 25 23 0 58 17 58 29 0 5 -9 11 -20
14 -10 3 -18 0 -17 -5 1 -6 -4 -13 -11 -15 -11 -4 -12 20 -3 55 1 2 11 -4 23
-12 37 -26 55 -20 28 9 -16 17 -30 23 -45 19 -18 -5 -25 0 -34 27 -6 17 -18
37 -27 44 -21 15 -14 28 28 49 34 17 75 41 196 114 39 23 78 42 86 42 9 0 16
4 16 9 0 5 8 11 18 14 22 7 71 37 95 59 22 19 57 30 57 17 0 -5 -12 -15 -27
-22 -16 -6 -31 -16 -35 -21 -3 -5 -15 -11 -25 -12 -9 -2 -19 -8 -21 -14 -2 -6
-20 -19 -40 -29 -82 -40 -124 -66 -168 -103 -26 -21 -49 -36 -52 -34 -7 8 -42
-40 -42 -57 0 -16 28 -30 51 -25 7 2 25 13 39 26 13 12 30 22 36 22 6 0 19 9
29 20 10 11 27 22 39 26 11 4 34 17 49 30 16 13 35 24 43 24 8 0 24 9 36 20
12 10 25 17 30 14 4 -3 8 0 8 5 0 6 5 11 12 11 6 0 26 11 45 26 18 14 33 22
33 19 0 -3 18 6 40 20 22 14 42 25 45 25 4 0 21 11 38 24 18 13 52 34 77 47
60 31 112 83 104 103 -8 20 3 20 23 0 10 -9 25 -13 39 -10 12 3 24 2 26 -2 2
-4 19 -17 38 -29 43 -25 91 -16 116 23 15 23 18 23 39 10 21 -14 23 -13 36 11
8 14 13 35 12 47 -1 12 0 15 3 9 3 -7 11 -13 19 -13 11 0 94 -37 147 -65 19
-10 25 -35 9 -35 -5 0 -16 6 -23 13 -7 7 -27 20 -45 27 -17 8 -30 17 -27 21 2
4 -7 10 -21 13 -28 7 -63 -20 -59 -47 3 -21 30 -48 52 -52 9 -1 16 -8 15 -14
-2 -6 8 -11 22 -11 14 0 25 -3 25 -8 0 -4 15 -14 33 -21 17 -8 57 -31 87 -52
30 -21 57 -36 61 -33 4 2 12 -3 19 -11 7 -8 17 -15 22 -15 5 0 16 -7 25 -15 8
-8 19 -13 24 -10 5 4 9 1 9 -4 0 -6 5 -11 11 -11 7 0 35 -14 63 -32 66 -41
175 -98 187 -98 5 0 18 -9 29 -20 11 -11 29 -20 40 -20 41 0 36 60 -6 69 -10
2 -30 15 -43 30 -14 14 -29 25 -33 24 -4 -2 -8 3 -8 10 0 7 -22 21 -50 32 -27
11 -50 25 -50 32 0 7 -3 12 -7 12 -25 -4 -43 3 -43 16 0 8 -3 14 -7 13 -17 -4
-53 14 -47 24 4 6 1 8 -7 6 -14 -5 -69 21 -69 33 0 4 -12 10 -27 14 -33 8
-113 56 -113 68 0 5 -4 5 -10 2 -5 -3 -10 1 -10 9 0 9 3 16 8 16 8 0 54 -29
62 -40 5 -7 93 -53 120 -64 8 -3 24 -12 35 -18 24 -16 86 -53 128 -77 18 -10
67 -39 109 -63 43 -25 75 -48 70 -53 -4 -4 0 -6 8 -3 8 3 26 -2 40 -11 14 -9
42 -25 62 -36 l38 -19 -40 -37 c-21 -20 -36 -39 -33 -43 6 -5 -21 -10 -40 -7
-4 1 -14 -12 -21 -29 -7 -17 -14 -29 -17 -28 -5 3 22 -21 47 -41 7 -6 15 -7
19 -3 4 4 12 0 18 -9 7 -8 24 -23 39 -33 15 -10 25 -23 21 -31 -14 -37 -93
-20 -93 20 0 33 -34 57 -80 59 -30 0 -44 -4 -51 -17 -6 -9 -20 -16 -34 -15
-13 1 -22 5 -19 9 2 4 0 10 -5 13 -5 4 -7 21 -4 39 13 67 6 111 -20 133 -14
12 -27 29 -29 39 -1 10 -12 23 -23 29 -11 6 -33 20 -50 31 -16 11 -46 27 -66
36 -20 9 -60 33 -90 54 -30 20 -67 43 -84 51 -61 30 -75 39 -75 47 0 4 -4 6
-9 2 -5 -3 -17 2 -26 11 -9 9 -18 14 -21 11 -3 -3 -18 -1 -34 5 -20 6 -35 6
-49 -2 -20 -10 -21 -8 -21 37 0 38 -4 51 -20 61 -37 23 -78 -17 -64 -61 4 -12
2 -17 -4 -13 -6 3 -13 2 -17 -4 -6 -10 -40 -9 -51 3 -4 4 -18 4 -30 1 -18 -5
-24 -2 -24 10 0 9 5 16 10 16 6 0 3 11 -7 25 -12 17 -28 24 -49 25 -29 0 -33
-4 -43 -46 -6 -25 -9 -49 -6 -55 8 -13 -9 -11 -22 2 -8 8 -16 6 -29 -9 -14
-16 -21 -18 -39 -10 -17 8 -30 6 -56 -8 -19 -10 -37 -17 -41 -16 -5 1 -8 -3
-8 -9 0 -5 -15 -17 -32 -25 -18 -8 -46 -23 -63 -34 -16 -10 -50 -29 -75 -42
-25 -13 -51 -29 -58 -35 -7 -7 -20 -13 -28 -13 -8 0 -17 -7 -20 -15 -4 -8 -10
-12 -15 -9 -5 3 -9 0 -9 -5 0 -6 -5 -11 -11 -11 -6 0 -24 -10 -41 -21 -20 -15
-26 -25 -19 -32 7 -7 47 12 128 60 262 157 343 202 343 190 -1 -12 -445 -275
-480 -284 -10 -3 -21 -14 -24 -26 -4 -17 -8 -19 -17 -10 -10 10 -9 17 6 33 24
26 11 39 -15 15 -25 -23 -25 -30 1 -67 12 -17 18 -33 13 -37 -14 -10 -16 -32
-4 -61 9 -22 16 -26 40 -22 18 3 35 -2 45 -12 9 -9 23 -16 31 -16 18 0 93 38
112 56 7 8 18 14 23 14 5 0 31 16 58 35 26 19 53 35 58 35 6 0 30 16 55 35 25
19 48 31 52 28 3 -4 6 -1 6 5 0 7 6 12 13 12 7 0 23 9 35 20 12 11 28 20 36
20 15 0 26 22 25 48 0 11 -2 12 -6 4 -3 -7 -19 -20 -36 -29 -18 -9 -123 -71
-234 -139 -112 -68 -205 -124 -208 -124 -3 0 -5 8 -5 19 0 26 407 273 437 265
21 -6 41 11 29 24 -11 10 -87 7 -94 -4 -4 -6 -14 -14 -22 -18 -21 -10 -72 -42
-195 -121 -27 -18 -61 -36 -75 -40 -14 -4 -32 -15 -40 -25 -8 -9 -23 -19 -33
-23 -15 -6 -16 -4 -7 14 11 20 52 49 103 72 15 6 27 15 27 19 0 5 5 8 12 8 6
0 25 10 42 23 17 12 51 33 76 46 25 13 61 36 80 51 19 15 45 30 58 34 12 4 22
12 22 17 0 24 41 4 83 -41 48 -51 75 -61 100 -35 19 18 103 30 112 16 3 -6 10
-9 15 -6 5 3 14 -4 20 -15 16 -30 45 -17 105 46 44 46 53 52 70 42 11 -6 22
-14 25 -17 3 -4 16 -12 30 -19 14 -7 43 -24 65 -37 22 -14 48 -28 57 -32 10
-3 16 -9 13 -13 -3 -4 8 -10 23 -13 17 -3 29 -12 29 -21 0 -13 -13 -15 -74
-14 -62 2 -73 5 -73 20 0 10 6 18 13 18 8 0 7 4 -3 10 -8 5 -11 10 -6 10 5 0
-8 13 -30 30 -43 33 -58 35 -93 16 -15 -8 -20 -16 -12 -20 6 -4 18 -3 27 2 23
13 84 -23 84 -49 0 -24 -3 -24 -48 5 -43 27 -82 41 -82 29 0 -5 18 -19 40 -33
26 -16 35 -27 27 -32 -6 -4 -114 -7 -238 -8 -161 0 -234 -4 -250 -13 -25 -12
-25 -11 -29 -142 -2 -65 11 -97 51 -126 31 -21 42 -23 181 -23 81 0 148 -3
148 -6 0 -4 -10 -12 -22 -18 -19 -9 -20 -11 -5 -11 15 -1 17 -7 12 -33 -6 -35
-7 -63 -6 -198 0 -47 0 -94 -1 -105 0 -11 1 -60 2 -109 2 -66 0 -91 -10 -94
-8 -3 -9 -6 -1 -11 15 -10 -44 -93 -77 -109 -31 -15 -162 -16 -162 -2 0 6 -7
10 -16 10 -9 0 -12 5 -8 12 5 7 2 9 -8 6 -20 -8 -62 63 -66 111 -1 19 -7 40
-12 46 -5 6 -7 20 -4 31 3 12 -3 29 -15 43 -21 24 -22 24 -219 23 -108 -1
-204 -2 -213 -2 -8 0 -25 -9 -36 -19 -19 -18 -21 -30 -20 -168 0 -81 3 -159 7
-173 5 -14 14 -51 21 -82 6 -32 15 -58 18 -58 4 0 15 -23 26 -50 11 -27 23
-50 27 -50 4 0 8 -4 8 -10 0 -11 4 -15 80 -99 28 -30 50 -58 50 -63 0 -4 6 -8
14 -8 8 0 16 -3 18 -7 11 -26 123 -93 188 -113 25 -7 51 -18 58 -24 8 -5 27
-11 44 -12 16 -2 35 -8 43 -14 18 -15 302 -10 313 5 4 6 14 11 22 12 56 7 247
106 258 135 2 4 12 8 23 8 11 0 22 6 25 14 3 8 26 36 50 63 52 55 116 163 140
231 25 73 34 245 34 655 0 233 4 377 10 377 6 0 9 -155 10 -407 0 -225 0 -412
0 -418 1 -5 7 6 13 25 9 25 12 121 10 348 -2 212 1 312 8 312 5 0 8 -4 4 -9
-3 -5 0 -13 5 -16 16 -10 33 -57 31 -83 -2 -13 6 -32 17 -42 22 -21 16 -23
134 49 94 57 148 99 148 116 0 21 17 27 39 14 22 -14 16 -29 -31 -81 -27 -29
-27 -30 -10 -53 9 -13 24 -23 32 -22 12 2 15 -13 15 -80 0 -77 -1 -83 -21 -83
-11 0 -30 -9 -41 -19 l-21 -20 0 90 c1 85 -1 93 -25 117 -23 23 -29 24 -52 14
-21 -10 -24 -15 -16 -31 14 -25 15 -588 2 -622 -5 -14 -6 -32 -1 -39 5 -8 7
-17 5 -20 -2 -4 5 -6 17 -5 37 3 68 50 68 106 0 48 11 63 27 35 4 -8 19 -16
33 -18 23 -3 25 -7 23 -53 -2 -75 -2 -75 -14 -75 -7 0 -20 -10 -31 -22 -19
-22 -19 -22 32 -72 l51 -51 23 27 c13 15 27 24 30 21 3 -3 1 10 -4 28 -6 19
-9 79 -8 135 2 73 -1 106 -11 118 -11 13 -11 21 4 52 20 42 22 125 7 193 -6
25 -9 48 -7 52 3 4 6 84 7 179 2 159 1 173 -17 186 -10 8 -17 15 -14 17 44 35
79 57 90 56 11 0 11 -2 1 -6 -17 -7 14 -43 36 -43 32 0 58 73 30 83 -10 3 -10
9 1 29 8 15 10 35 6 48 -8 27 -15 71 -19 120 -4 64 -50 102 -83 69 -8 -8 -17
-8 -31 0 -30 16 -64 14 -92 -6 -17 -12 -25 -13 -28 -5 -7 23 -34 42 -58 42
-37 0 -38 0 -59 19 -32 28 -105 72 -105 64 0 -5 -4 -3 -8 3 -8 13 -62 46 -109
68 -18 8 -33 20 -33 26 0 6 -6 10 -14 8 -8 -2 -22 6 -31 17 -9 11 -13 14 -9 6
8 -17 -4 -10 -53 25 -17 13 -36 24 -42 24 -5 0 -14 7 -19 16 -5 9 -13 16 -18
15 -15 -1 -64 23 -64 31 0 5 -9 8 -19 8 -11 0 -21 4 -23 8 -3 8 -110 62 -122
62 -4 0 -27 14 -51 30 -24 17 -50 30 -57 30 -25 0 -38 23 -38 67 0 24 -7 55
-16 68 -19 30 -6 33 34 8z m354 -149 c73 -42 154 -88 179 -103 185 -106 299
-178 299 -188 0 -7 -2 -13 -4 -13 -2 0 -55 31 -118 68 -62 38 -202 119 -310
182 -108 63 -195 117 -192 122 3 4 7 8 9 8 3 0 64 -34 137 -76z m-242 51 c20
-24 5 -28 -21 -6 -19 16 -20 20 -8 21 9 0 22 -7 29 -15z m-570 -10 c-7 -8 -19
-15 -27 -15 -13 0 -13 3 -3 15 7 8 19 15 27 15 13 0 13 -3 3 -15z m-50 -17 c0
-7 -33 -32 -73 -54 -39 -23 -185 -108 -324 -188 -138 -80 -254 -146 -257 -146
-29 0 37 43 292 191 163 94 311 180 327 190 36 22 35 22 35 7z m1000 -193
c157 -91 292 -173 300 -181 29 -29 -11 -14 -93 35 -87 51 -483 283 -529 310
-16 8 -28 21 -28 29 0 10 8 9 33 -6 17 -11 160 -95 317 -187z m-845 156 c5 -8
-92 -71 -110 -71 -16 0 3 22 45 49 50 33 56 35 65 22z m389 -17 c46 -26 62
-41 53 -50 -7 -7 -107 56 -107 67 0 13 2 12 54 -17z m-381 -41 c-11 -30 -43
-40 -43 -14 0 6 29 25 47 30 1 1 -1 -7 -4 -16z m-133 -12 c0 -12 -20 -25 -27
-18 -7 7 6 27 18 27 5 0 9 -4 9 -9z m180 -12 c0 -5 -7 -9 -15 -9 -15 0 -20 12
-9 23 8 8 24 -1 24 -14z m250 7 c0 -8 -4 -17 -9 -21 -12 -7 -24 12 -16 25 9
15 25 12 25 -4z m383 -107 c452 -259 544 -315 533 -326 -3 -3 -78 37 -168 90
-90 52 -259 149 -375 216 -182 105 -235 141 -207 141 3 0 101 -55 217 -121z
m-855 89 c-5 -15 -709 -421 -716 -413 -3 3 5 13 18 23 34 25 683 401 693 401
5 1 7 -4 5 -11z m92 -6 c0 -4 -8 -12 -19 -17 -10 -6 -33 -18 -51 -28 -23 -13
-31 -15 -28 -5 3 7 24 23 49 35 52 26 49 25 49 15z m50 -17 c0 -8 -30 -32 -67
-53 -325 -188 -499 -291 -561 -334 -40 -27 -78 -48 -84 -46 -6 2 4 14 23 26
19 11 45 30 58 41 13 11 83 55 155 97 72 43 199 117 281 165 83 48 157 95 165
104 18 19 30 19 30 0z m420 -6 c0 -4 -8 -6 -17 -3 -10 3 8 -8 39 -23 91 -45
577 -327 578 -335 0 -5 -5 -8 -10 -8 -9 0 -617 344 -629 355 -2 2 -1 11 2 19
6 16 37 12 37 -5z m-716 -2 c-6 -16 -130 -90 -150 -90 -8 0 -14 -4 -14 -9 0
-4 -4 -8 -10 -8 -5 0 -31 -14 -57 -30 -26 -17 -53 -28 -60 -26 -7 3 -12 0 -10
-6 1 -5 -18 -22 -43 -36 -25 -14 -63 -37 -85 -51 -72 -46 -107 -62 -121 -57
-8 3 -14 1 -14 -5 0 -6 -4 -8 -8 -5 -5 3 -16 -4 -26 -15 -12 -15 -24 -19 -39
-14 -54 17 -68 17 -86 1 -16 -15 -20 -15 -49 0 -18 8 -30 20 -26 25 3 5 9 7
14 4 4 -3 13 2 20 10 7 8 16 12 21 9 5 -3 12 2 15 10 3 9 12 16 19 16 8 0 27
13 43 30 30 29 42 30 42 2 0 -40 71 -55 112 -22 14 10 28 17 31 14 3 -4 18 2
34 13 15 10 39 24 53 31 14 7 37 20 52 30 27 18 119 71 201 115 26 15 47 24
47 21 0 -4 11 4 43 32 12 11 35 22 49 23 4 1 5 -5 2 -12z m126 -42 c-7 -8 -18
-15 -24 -15 -6 0 -2 7 8 15 25 19 32 19 16 0z m276 -6 c3 -6 1 -16 -5 -22 -7
-7 -11 -52 -11 -115 0 -66 -4 -101 -10 -97 -6 4 -10 57 -10 126 0 97 3 119 14
119 8 0 18 -5 22 -11z m205 -99 c-1 -58 -5 -114 -8 -125 -3 -13 14 -1 49 33
29 28 57 52 60 52 9 0 339 -197 352 -210 5 -5 7 -12 4 -15 -2 -3 -80 40 -172
95 -92 55 -170 100 -174 100 -4 0 -36 -30 -73 -66 l-66 -66 -1 137 c0 75 -2
139 -5 142 -11 10 6 34 21 31 13 -3 16 -19 13 -108z m-541 73 c-1 -14 -80 -63
-80 -50 0 6 15 22 33 34 34 23 47 28 47 16z m383 -75 c-23 -23 -45 -39 -49
-36 -7 8 66 78 81 78 5 0 -9 -19 -32 -42z m117 -32 c0 -5 -16 5 -35 24 -19 19
-35 38 -35 44 0 5 16 -5 35 -24 19 -19 35 -38 35 -44z m-255 44 c3 -5 -1 -10
-9 -10 -9 0 -16 5 -16 10 0 6 4 10 9 10 6 0 13 -4 16 -10z m385 1 c0 -14 -18
-23 -30 -16 -6 4 -8 11 -5 16 8 12 35 12 35 0z m861 -11 c15 -8 19 -21 19 -59
0 -41 -3 -49 -25 -59 -21 -10 -26 -9 -34 6 -8 15 -5 18 17 17 22 0 28 5 30 29
2 19 -4 36 -19 52 -24 26 -20 30 12 14z m-2121 -10 c0 -5 -4 -10 -10 -10 -5 0
-10 -16 -10 -35 0 -42 22 -56 49 -31 19 18 31 21 31 8 0 -5 -15 -17 -34 -27
-29 -16 -37 -17 -50 -6 -19 16 -21 82 -4 99 15 15 28 16 28 2z m898 -15 c0
-14 -5 -25 -10 -25 -5 0 -6 5 -3 10 3 6 1 10 -5 10 -7 0 -6 5 2 15 7 8 14 14
14 15 1 0 2 -11 2 -25z m322 -6 c0 -10 -4 -19 -9 -19 -5 0 -8 11 -7 24 1 28
16 24 16 -5z m276 -85 c239 -139 247 -144 241 -151 -7 -6 -456 249 -457 260 0
15 22 4 216 -109z m-422 90 c26 -10 9 -21 -23 -16 -17 2 -28 8 -25 13 6 10 26
12 48 3z m-113 -157 c-4 -4 -36 21 -70 56 l-62 65 -67 -45 c-37 -24 -143 -90
-236 -146 -92 -56 -170 -108 -173 -117 -15 -50 -35 -82 -45 -72 -7 7 -5 25 6
60 l17 50 227 135 c125 75 236 142 247 151 19 14 24 11 92 -57 40 -39 69 -75
64 -80z m49 93 c0 -28 2 -30 40 -30 38 0 40 2 40 30 0 17 5 30 10 30 6 0 10
-18 10 -40 l0 -40 -60 0 -60 0 0 40 c0 22 5 40 10 40 6 0 10 -13 10 -30z m55
10 c-3 -5 -13 -10 -21 -10 -8 0 -14 5 -14 10 0 6 9 10 21 10 11 0 17 -4 14
-10z m-1447 -37 c-2 -10 -14 -20 -28 -22 -25 -3 -25 -3 -6 18 23 26 39 27 34
4z m2898 -4 c19 -21 19 -21 -6 -18 -14 2 -26 12 -28 22 -5 23 11 22 34 -4z
m-41 -40 c-10 -15 -22 -10 -28 11 -4 17 -2 18 14 9 11 -5 17 -14 14 -20z
m-2869 -23 c8 -20 -12 -53 -36 -61 -20 -6 -20 -15 -20 -835 0 -816 0 -829 20
-840 27 -14 45 -49 32 -62 -7 -7 -24 0 -51 23 l-41 34 0 839 0 838 38 38 c41
43 50 47 58 26z m2944 -23 l40 -38 0 -847 c0 -512 -4 -848 -9 -848 -5 0 -24
-12 -41 -26 -23 -20 -34 -24 -43 -15 -8 8 -3 19 22 45 l32 33 2 819 2 818 -34
32 c-23 21 -32 36 -28 47 9 23 12 22 57 -20z m-2540 -3 c-27 -21 -40 -25 -40
-12 0 9 38 30 55 31 6 0 -1 -8 -15 -19z m2106 6 c10 -8 16 -17 13 -20 -3 -4
-17 2 -30 13 -27 23 -13 28 17 7z m-2345 -37 c-23 -22 -31 -24 -31 -8 0 15 32
39 43 32 5 -3 -1 -14 -12 -24z m2570 21 c18 -10 27 -40 12 -40 -10 1 -47 50
-38 50 4 0 15 -5 26 -10z m-2373 -54 l77 -54 -3 -64 -4 -64 -73 -38 c-47 -23
-81 -35 -93 -32 -32 10 -137 109 -135 125 1 9 5 36 7 61 3 25 9 46 14 48 5 1
33 18 63 37 30 19 58 35 62 35 4 0 42 -24 85 -54z m2314 23 c60 -38 78 -64 78
-106 0 -18 5 -33 10 -33 26 0 4 -31 -49 -70 -112 -82 -99 -80 -191 -35 l-80
39 0 63 0 62 83 55 c45 30 86 55 91 56 5 0 31 -14 58 -31z m-322 -19 c0 -14
-7 -13 -35 6 -35 23 -31 38 5 19 17 -9 30 -20 30 -25z m-180 -85 c0 -42 -3
-55 -15 -55 -10 0 -15 11 -15 35 l0 35 -101 0 -100 0 2 -57 c3 -56 2 -58 -24
-61 l-27 -3 0 -459 c0 -499 2 -483 -56 -495 -13 -3 -35 -7 -48 -10 -14 -3 -28
-17 -36 -34 -15 -38 -94 -117 -140 -141 -173 -89 -382 -55 -524 87 -68 68
-116 163 -116 228 l0 45 -49 0 -48 0 4 -52 c10 -120 59 -216 161 -310 103 -95
218 -138 371 -138 203 0 408 110 471 253 12 26 27 47 35 47 19 0 -37 -105 -84
-153 -53 -57 -135 -106 -231 -139 -155 -54 -335 -40 -474 38 -156 87 -276 275
-276 431 l0 43 70 0 c69 0 70 0 70 -26 0 -35 29 -94 46 -94 8 0 14 -3 14 -8 0
-14 131 -142 172 -168 48 -31 166 -57 216 -48 99 16 162 45 223 104 53 50 67
58 111 63 28 4 61 13 74 22 l24 15 0 453 c1 373 3 456 15 477 8 14 14 19 15
13 0 -7 8 -13 17 -13 13 0 14 3 5 12 -7 7 -12 27 -12 45 l0 33 -325 0 -325 0
0 -74 c0 -50 4 -77 14 -85 9 -7 74 -10 203 -9 147 2 195 -1 207 -11 14 -12 16
-54 16 -362 0 -306 -2 -348 -15 -343 -13 5 -15 53 -15 345 l0 339 -209 0
c-182 0 -210 2 -222 17 -9 10 -15 51 -17 120 l-4 103 476 0 476 0 0 -55z m230
-47 c-1 -28 -2 -31 -13 -17 -7 9 -18 14 -24 12 -19 -7 -16 8 5 23 26 20 32 17
32 -18z m-577 1 l27 -12 0 -469 0 -469 -35 -15 c-19 -7 -50 -14 -69 -14 -29 0
-43 -8 -76 -44 -145 -157 -392 -157 -512 0 -93 122 -118 175 -118 245 l0 39
-105 0 -105 0 0 -84 c0 -155 35 -260 124 -368 56 -69 174 -149 265 -180 89
-31 309 -33 384 -4 162 62 303 189 339 305 7 22 19 41 25 41 10 0 13 109 13
520 l0 521 58 -3 57 -3 3 -490 c3 -572 2 -582 -78 -713 -117 -189 -321 -308
-551 -319 -126 -7 -211 6 -311 47 -194 79 -344 234 -409 421 -19 54 -23 93
-27 242 l-4 177 218 0 219 0 2 -65 c3 -77 19 -118 62 -167 42 -48 91 -70 161
-71 75 -2 142 37 177 102 23 43 23 50 23 338 0 275 1 294 18 291 16 -3 17 -26
20 -293 3 -314 -1 -341 -52 -396 -63 -67 -136 -93 -221 -78 -131 23 -225 130
-225 258 l0 46 -186 -3 -186 -3 7 -142 c10 -231 52 -336 185 -467 184 -182
450 -250 685 -174 165 54 320 183 391 328 l39 80 3 285 c1 157 3 386 5 509 l2
222 -27 0 -28 0 0 -500 c0 -322 -4 -500 -10 -500 -5 0 -26 -34 -45 -75 -47
-98 -161 -215 -251 -256 -260 -119 -544 -71 -740 125 -111 112 -145 197 -153
384 l-6 132 126 0 126 0 6 -58 c6 -72 33 -127 105 -215 61 -75 107 -104 186
-117 105 -17 211 23 297 112 53 56 57 58 107 58 28 0 54 5 57 10 8 13 7 892
-1 899 -3 4 -120 6 -260 6 -224 0 -254 2 -254 16 0 13 30 16 248 18 179 2 256
-1 275 -10z m-43 -47 c0 -4 -108 -8 -240 -7 -132 0 -240 3 -240 8 0 4 108 7
240 7 132 0 240 -4 240 -8z m-1150 -57 c0 -7 -7 -18 -15 -25 -9 -7 -13 -21 -9
-35 3 -13 1 -26 -4 -29 -5 -3 -13 5 -16 18 -4 18 -11 23 -26 19 -15 -4 -21 1
-26 23 -8 33 5 56 37 65 25 6 59 -14 59 -36z m1703 28 c12 -4 17 -16 17 -44 0
-34 -3 -39 -24 -39 -13 0 -30 -10 -39 -22 l-16 -23 0 22 c-1 12 4 25 10 28 7
5 4 14 -7 26 -14 16 -15 23 -5 45 8 19 16 24 29 19 9 -4 25 -10 35 -12z
m-2203 -23 c0 -16 -4 -30 -10 -30 -5 0 -10 14 -10 30 0 17 5 30 10 30 6 0 10
-13 10 -30z m1640 15 c0 -8 -4 -15 -9 -15 -13 0 -22 16 -14 24 11 11 23 6 23
-9z m1000 -15 c0 -16 -4 -30 -10 -30 -5 0 -10 14 -10 30 0 17 5 30 10 30 6 0
10 -13 10 -30z m-810 -424 c0 -382 -2 -445 -15 -456 -8 -7 -15 -20 -15 -30 0
-13 -6 -17 -20 -13 -25 7 -25 11 1 34 20 18 21 24 21 451 1 313 -2 433 -11
436 -21 7 -11 22 14 22 l25 0 0 -444z m-1277 418 c8 -8 -60 -144 -73 -144 -7
0 -123 64 -139 76 -1 1 0 7 3 13 4 5 33 -7 69 -29 l62 -38 30 64 c30 62 36 70
48 58z m1065 -366 c1 -293 4 -373 14 -379 14 -9 -6 -13 -48 -10 -12 1 -24 -5
-27 -13 -5 -13 3 -16 49 -16 l54 0 -2 390 c-2 310 0 390 10 390 10 0 12 -81
12 -390 -1 -443 5 -413 -86 -409 -37 2 -48 -1 -56 -17 -25 -45 -107 -112 -164
-134 -78 -29 -180 -25 -244 11 -64 36 -62 53 3 23 118 -54 226 -39 316 42 61
55 99 119 76 128 -9 3 -12 12 -8 21 3 10 8 12 12 6 11 -17 59 -21 65 -4 3 8 6
167 6 353 0 288 -2 341 -15 354 -21 20 -19 26 9 26 l24 0 0 -372z m497 307
c26 -62 37 -75 49 -56 6 9 101 61 112 61 3 0 4 -5 2 -10 -5 -15 -131 -89 -141
-83 -11 7 -67 124 -67 141 0 30 19 7 45 -53z m-1515 -125 c0 -100 -4 -160 -10
-160 -6 0 -10 58 -10 153 0 135 3 167 17 167 2 0 3 -72 3 -160z m1780 126 c0
-7 -24 -28 -52 -46 -29 -18 -80 -50 -114 -71 -33 -22 -66 -39 -72 -39 -30 0
-4 24 83 76 53 31 106 67 118 80 22 23 37 23 37 0z m-2054 -38 c44 -29 99 -62
122 -73 37 -18 57 -45 32 -45 -18 0 -240 145 -240 157 0 7 1 13 3 13 2 0 39
-24 83 -52z m2180 -158 l-1 -170 -37 0 c-37 0 -38 -1 -40 -37 -1 -21 -2 -54
-4 -73 -1 -19 0 -74 3 -122 l6 -88 36 0 36 0 0 -140 c0 -105 -3 -140 -12 -140
-7 0 -13 8 -13 19 0 11 -12 23 -30 31 -16 7 -30 16 -30 21 0 14 26 10 40 -6 7
-8 15 -15 19 -15 3 0 6 47 7 105 l0 105 -38 0 -38 0 0 179 0 180 38 3 37 3 -4
120 c-1 66 -5 122 -7 124 -2 2 -12 -3 -22 -12 -10 -10 -22 -14 -25 -10 -13 12
-7 21 23 33 21 9 30 19 30 36 0 14 6 24 14 24 10 0 13 -33 12 -170z m-178 38
c9 -9 12 -94 12 -322 -1 -319 -4 -346 -40 -346 -9 0 -8 5 3 18 15 16 17 54 17
325 0 193 -4 308 -10 312 -12 7 -13 25 -2 25 4 0 13 -5 20 -12z m-1718 -156
c0 -10 -21 -32 -31 -32 -4 0 -9 9 -12 20 -4 16 0 20 19 20 13 0 24 -4 24 -8z
m1774 -105 c5 -27 4 -37 -3 -32 -6 3 -11 22 -11 42 0 44 5 41 14 -10z m125
-97 c-1 -61 -5 -113 -10 -116 -10 -6 -10 -10 -12 124 -2 78 1 102 11 102 10 0
13 -26 11 -110z m-120 -10 c-3 -82 -15 -85 -17 -4 -1 39 2 64 9 64 6 0 9 -23
8 -60z m-1541 -77 c-21 -2 -57 -2 -80 0 -24 2 -7 4 37 4 44 0 63 -2 43 -4z
m119 -35 c-3 -7 -5 -2 -5 12 0 14 2 19 5 13 2 -7 2 -19 0 -25z m-90 -10 c-3
-8 -6 -5 -6 6 -1 11 2 17 5 13 3 -3 4 -12 1 -19z m1609 0 c12 -14 13 -18 3
-10 -9 6 -18 10 -21 7 -2 -3 -5 2 -5 10 0 19 0 19 23 -7z m-1426 -121 c42 -39
48 -47 30 -47 -30 0 -121 112 -120 148 1 10 9 2 20 -19 10 -19 42 -56 70 -82z
m-255 53 c3 -5 -3 -10 -14 -10 -12 0 -21 5 -21 10 0 6 6 10 14 10 8 0 18 -4
21 -10z m685 -25 c-7 -9 -15 -13 -18 -10 -3 2 1 11 8 20 7 9 15 13 18 10 3 -2
-1 -11 -8 -20z m-671 -66 c57 -159 194 -277 359 -310 191 -37 426 52 509 192
16 27 41 44 50 35 9 -9 -32 -71 -77 -117 -50 -50 -127 -93 -220 -125 -86 -29
-254 -25 -340 7 -83 31 -170 89 -216 143 -61 71 -130 236 -94 224 8 -2 21 -24
29 -49z m639 29 c-73 -70 -156 -97 -249 -81 -53 10 -52 10 41 11 58 0 96 5 98
11 2 6 12 11 23 11 10 0 19 4 19 9 0 10 59 51 73 51 5 0 2 -6 -5 -12z m179
-158 c-27 -30 -40 -40 -46 -34 -2 2 5 13 17 24 12 12 22 30 22 41 0 16 2 18
14 7 12 -11 11 -17 -7 -38z m-77 -70 c0 -5 -5 -10 -11 -10 -5 0 -7 5 -4 10 3
6 8 10 11 10 2 0 4 -4 4 -10z m-1647 -460 c-8 -8 -33 32 -26 43 3 5 12 -1 19
-14 7 -13 10 -26 7 -29z m2817 24 c0 -8 -5 -12 -10 -9 -6 4 -8 11 -5 16 9 14
15 11 15 -7z m-2869 -14 c17 -10 28 -40 14 -40 -15 0 -54 33 -49 41 7 11 11
11 35 -1z m2929 -1 c0 -12 -29 -38 -42 -39 -15 0 -8 29 10 39 23 14 32 13 32
0z m-2580 -133 c0 -8 6 -17 13 -19 7 -3 7 -6 1 -6 -6 -1 -19 8 -29 19 -16 18
-16 20 -2 20 10 0 17 -6 17 -14z m110 -66 c8 -5 11 -10 5 -10 -5 0 -17 5 -25
10 -8 5 -10 10 -5 10 6 0 17 -5 25 -10z m66 -46 c18 -14 18 -14 -6 -3 -31 14
-36 19 -24 19 6 0 19 -7 30 -16z m94 -56 c0 -12 -5 -10 -36 18 l-29 26 33 -18
c17 -10 32 -22 32 -26z m40 -12 c0 -11 -19 -15 -25 -6 -3 5 1 10 9 10 9 0 16
-2 16 -4z m45 -32 c19 -16 19 -16 -5 -9 -31 9 -50 25 -29 25 7 0 23 -8 34 -16z
m105 -64 c0 -5 -4 -10 -10 -10 -5 0 -10 5 -10 10 0 6 5 10 10 10 6 0 10 -4 10
-10z m63 -36 c9 -4 17 -10 17 -16 0 -9 -20 0 -50 22 -13 10 -13 11 0 6 8 -3
23 -9 33 -12z m87 -54 c0 -5 -4 -10 -9 -10 -6 0 -13 5 -16 10 -3 6 1 10 9 10
9 0 16 -4 16 -10z m40 -20 c8 -5 11 -10 5 -10 -5 0 -17 5 -25 10 -8 5 -10 10
-5 10 6 0 17 -5 25 -10z m50 -29 c0 -5 8 -12 18 -14 14 -4 14 -5 1 -6 -9 0
-22 6 -29 14 -9 10 -9 15 -1 15 6 0 11 -4 11 -9z m195 -121 c3 -5 1 -10 -4
-10 -6 0 -11 5 -11 10 0 6 2 10 4 10 3 0 8 -4 11 -10z m177 -103 c7 -8 20 -16
28 -20 13 -5 13 -5 0 -6 -8 0 -26 8 -40 19 -14 11 -20 20 -13 20 6 0 18 -6 25
-13z"/>
<path d="M1001 3300 c-67 -39 -86 -55 -88 -75 -2 -14 0 -25 4 -24 4 0 46 24
93 52 60 37 86 59 88 75 2 12 0 22 -5 21 -4 0 -46 -22 -92 -49z"/>
<path d="M2205 3768 l-50 -29 0 -57 c0 -53 2 -59 39 -92 22 -19 45 -40 51 -47
10 -9 24 -1 66 37 51 47 53 50 54 103 l1 55 -52 31 c-29 17 -54 31 -56 30 -1
0 -25 -14 -53 -31z m39 -37 c-18 -11 -34 -25 -37 -33 -4 -10 -6 -9 -6 2 -1 15
44 49 64 50 6 0 -4 -9 -21 -19z m86 -43 c0 -33 -16 -68 -30 -68 -6 0 -10 7
-10 15 0 8 7 15 15 15 17 0 21 45 5 55 -16 10 -12 25 5 19 9 -4 15 -19 15 -36z
m-52 20 c17 -17 15 -45 -4 -52 -18 -7 -44 10 -44 28 0 13 20 36 30 36 3 0 11
-5 18 -12z m-91 -60 c-3 -8 -6 -5 -6 6 -1 11 2 17 5 13 3 -3 4 -12 1 -19z m91
-35 c11 -11 11 -14 -1 -19 -20 -7 -57 13 -57 30 0 17 38 9 58 -11z"/>
<path d="M1861 2897 c2 -1 13 -9 24 -17 19 -14 19 -14 6 3 -7 9 -18 17 -24 17
-6 0 -8 -1 -6 -3z"/>
<path d="M1845 2870 c-4 -6 1 -10 9 -10 18 0 21 -16 6 -23 -6 -3 -5 -4 2 -3
19 4 22 33 4 39 -9 4 -18 2 -21 -3z"/>
<path d="M955 2782 c-49 -16 -54 -25 -53 -92 0 -36 1 -191 2 -345 1 -154 -1
-302 -4 -330 -3 -27 -3 -61 0 -75 3 -13 3 -46 0 -72 -4 -26 -3 -45 1 -42 5 2
13 -5 19 -16 14 -26 24 -25 50 2 18 19 20 34 19 120 0 54 -5 101 -10 104 -6 4
-6 10 0 17 6 8 8 147 6 362 -3 303 -5 379 -9 374 -1 -1 -10 -4 -21 -7z m3
-495 c2 -404 0 -467 -12 -467 -13 0 -15 65 -15 471 0 362 3 469 12 466 9 -3
13 -118 15 -470z"/>
<path d="M1043 2773 c-18 -16 -19 -25 -13 -73 9 -66 7 -231 -2 -246 -4 -6 2
-17 12 -24 15 -11 17 -17 8 -27 -14 -18 -13 -225 1 -250 8 -13 10 16 11 110 0
78 4 127 10 127 6 0 10 -46 10 -117 0 -106 -2 -119 -22 -140 -19 -20 -22 -35
-23 -121 -1 -53 -5 -104 -9 -113 -9 -20 30 -89 50 -89 8 0 17 7 20 15 4 8 10
13 14 10 5 -3 12 1 17 8 4 8 14 16 22 19 25 8 22 44 -7 69 -24 22 -27 30 -24
80 3 46 7 55 24 56 28 3 46 20 51 51 3 15 4 6 4 -19 0 -25 3 -51 8 -59 5 -8 4
-11 -3 -6 -23 14 11 -55 35 -71 20 -13 28 -14 48 -3 22 12 23 14 9 36 -13 19
-15 70 -12 342 3 356 2 367 -52 313 -17 -16 -30 -38 -31 -48 -1 -10 -1 -51 -1
-92 -1 -70 -2 -73 -17 -55 -18 22 -22 24 -52 24 -16 0 -19 4 -14 20 4 12 2 26
-3 33 -6 7 -9 30 -7 52 1 22 3 46 4 53 1 8 7 12 13 10 20 -7 52 40 39 56 -6 7
-7 16 -3 20 4 4 2 6 -4 4 -6 -1 -23 12 -38 30 -32 37 -45 39 -73 15z m47 -28
c0 -15 7 -28 18 -32 27 -10 42 -24 36 -34 -3 -5 -19 0 -35 12 l-30 21 2 -131
1 -131 44 0 43 0 -2 -65 c-1 -39 -6 -65 -13 -65 -7 0 -9 19 -6 55 l4 55 -44 0
-45 0 -2 160 c-1 88 1 165 4 170 11 19 25 10 25 -15z m180 -104 c0 -6 -4 -13
-10 -16 -6 -4 -10 -118 -10 -310 0 -192 4 -306 10 -310 6 -3 10 -16 10 -28 0
-22 -1 -22 -20 3 -18 24 -20 43 -20 336 0 228 3 313 12 322 14 14 28 16 28 3z
m-150 -274 c0 -43 32 -76 53 -56 7 8 14 17 14 22 6 40 11 18 11 -40 -1 -40 -4
-73 -6 -73 -3 0 -10 7 -17 16 -9 14 -16 14 -33 5 -17 -9 -22 -21 -22 -51 0
-21 -3 -41 -8 -44 -4 -2 -7 54 -7 125 0 71 3 129 8 129 4 0 7 -15 7 -33z m46
-209 l-1 -63 -42 -3 -43 -3 0 -106 0 -105 26 17 c30 20 48 10 19 -10 -11 -8
-27 -21 -36 -30 -26 -26 -31 -5 -27 130 l3 125 43 0 44 0 -2 53 c-3 64 -2 70
9 63 5 -3 8 -34 7 -68z"/>
<path d="M3550 2765 c-18 -21 -18 -928 0 -950 17 -21 57 -19 64 3 4 13 7 140
6 232 0 8 1 170 2 358 2 189 1 347 -2 351 -11 17 -58 21 -70 6z m40 -475 c0
-307 -3 -470 -10 -470 -7 0 -10 163 -10 470 0 307 3 470 10 470 7 0 10 -163
10 -470z"/>
<path d="M1630 2751 c0 -6 5 -11 10 -11 6 0 10 -11 10 -25 0 -31 -22 -33 -50
-2 l-22 22 12 -27 c14 -29 42 -42 59 -25 16 16 13 52 -4 67 -10 9 -15 9 -15 1z"/>
<path d="M1604 2734 c3 -9 6 -18 6 -20 0 -2 8 -4 18 -4 16 1 16 1 0 14 -10 7
-15 16 -11 19 3 4 1 7 -6 7 -8 0 -11 -6 -7 -16z"/>
<path d="M2195 2690 c-4 -6 11 -10 36 -10 48 0 49 4 2 13 -18 4 -35 2 -38 -3z"/>
<path d="M2208 2653 c12 -2 32 -2 45 0 12 2 2 4 -23 4 -25 0 -35 -2 -22 -4z"/>
<path d="M1336 2584 c-9 -8 -16 -20 -16 -25 0 -6 -3 -8 -7 -6 -5 3 -8 -119 -8
-270 1 -229 3 -276 15 -283 22 -14 43 -11 65 8 19 16 20 26 15 137 -3 66 -3
187 0 270 5 124 3 153 -9 167 -19 22 -35 23 -55 2z m43 -42 c-5 -2 -9 -111 -9
-260 0 -238 -1 -258 -18 -269 -18 -10 -18 1 -16 263 1 202 5 278 14 289 11 13
14 13 26 -2 7 -10 8 -19 3 -21z"/>
<path d="M3136 2574 c-14 -13 -16 -54 -16 -288 0 -285 2 -296 45 -296 49 1 49
1 48 283 l0 265 -28 26 c-33 31 -30 30 -49 10z m45 -273 c1 -130 3 -248 4
-262 3 -22 -1 -27 -18 -27 l-22 0 2 272 c2 149 3 276 3 281 0 6 7 1 15 -9 12
-16 15 -65 16 -255z"/>
<path d="M1461 2084 c0 -11 3 -14 6 -6 3 7 2 16 -1 19 -3 4 -6 -2 -5 -13z"/>
<path d="M1346 1959 c-21 -16 -44 -29 -51 -29 -6 0 -22 -11 -35 -25 -13 -14
-29 -25 -35 -25 -17 0 -65 -54 -65 -72 0 -9 10 -24 21 -32 19 -13 24 -13 45 0
24 16 64 11 64 -8 0 -5 6 -8 14 -5 9 4 19 -5 26 -24 7 -17 26 -37 41 -45 27
-13 40 -44 20 -44 -10 0 -8 -96 3 -120 8 -16 111 -90 127 -90 5 0 9 -4 9 -10
0 -5 5 -10 10 -10 6 0 37 -17 68 -37 80 -52 119 -73 138 -73 19 0 65 -35 59
-44 -3 -3 -2 -4 2 -1 3 3 13 -1 22 -8 22 -19 178 -107 189 -107 5 0 15 7 22
15 7 9 19 14 27 11 7 -3 13 -1 13 5 0 6 7 17 15 26 14 13 15 11 11 -19 -2 -18
0 -42 4 -53 5 -13 0 -27 -15 -43 l-21 -23 -50 25 c-27 13 -53 25 -59 26 -5 2
-19 9 -30 16 -11 8 -24 14 -29 14 -13 0 31 -31 47 -34 7 -1 23 -9 37 -19 13
-9 29 -17 34 -17 5 0 20 -9 32 -21 22 -21 23 -21 53 -3 l31 18 0 103 c0 57 4
105 10 108 6 4 10 -16 10 -53 0 -32 3 -86 6 -119 6 -53 4 -61 -12 -66 -11 -3
-34 -15 -51 -27 l-33 -22 0 21 c0 12 -6 21 -13 21 -7 0 -74 36 -150 79 -75 43
-137 76 -137 73 0 -8 66 -52 76 -52 4 0 22 -11 39 -25 18 -13 35 -21 39 -18 3
4 6 1 6 -5 0 -7 6 -12 14 -12 8 0 21 -7 29 -15 8 -8 21 -16 28 -17 19 -4 59
-49 53 -59 -3 -5 -11 -6 -17 -2 -7 4 -35 22 -64 40 -29 18 -57 33 -64 33 -7 0
-27 11 -45 25 -18 14 -38 25 -44 25 -6 0 -9 4 -6 8 2 4 -5 9 -16 9 -12 1 -24
6 -27 10 -3 4 -17 14 -30 21 -99 56 -194 111 -211 122 -8 6 -26 15 -40 21 -13
5 -27 13 -30 17 -6 9 -37 28 -70 45 -14 6 -33 21 -42 33 -21 26 -128 82 -148
77 -8 -2 -4 2 10 9 40 20 80 68 81 97 1 17 3 20 6 8 4 -16 6 -16 34 0 35 21
38 36 5 23 -21 -7 -25 -5 -29 16 -4 24 15 34 28 14 3 -5 1 -10 -6 -10 -7 0
-10 -2 -7 -5 7 -7 38 5 38 15 0 5 -7 16 -16 24 -11 12 -20 13 -34 6 -23 -12
-33 -13 -26 -1 10 15 -38 58 -104 94 l-66 34 -42 -16 c-23 -9 -47 -22 -54 -29
-6 -6 -18 -12 -25 -12 -7 0 -13 -5 -13 -11 0 -6 -9 -1 -20 12 l-20 24 -20 -24
c-21 -24 -27 -71 -10 -71 5 0 9 -17 9 -37 -1 -42 9 -135 15 -141 2 -2 0 -17
-4 -32 -7 -26 -5 -31 21 -44 33 -17 50 -3 19 16 -20 13 -28 48 -10 48 6 0 10
-5 10 -11 0 -19 31 -42 63 -46 51 -7 81 -7 98 1 10 4 22 2 30 -6 20 -19 110
-81 142 -97 15 -8 27 -18 27 -23 0 -5 4 -7 9 -4 5 3 35 -11 68 -32 32 -20 76
-46 98 -57 22 -11 46 -26 53 -32 7 -7 18 -13 24 -13 6 0 25 -11 42 -23 17 -13
67 -43 111 -67 44 -24 82 -47 85 -51 3 -4 14 -12 25 -16 11 -4 66 -34 123 -66
93 -53 105 -57 116 -42 9 13 11 1 9 -61 -3 -76 -3 -78 27 -106 17 -15 29 -28
27 -28 -5 0 -139 81 -169 102 -13 9 -15 15 -6 26 10 11 7 18 -12 32 -14 10
-27 17 -29 14 -3 -2 4 -11 15 -18 10 -8 16 -17 13 -20 -8 -8 -50 24 -44 34 3
5 0 12 -6 16 -8 4 -9 3 -5 -4 5 -8 -1 -12 -15 -12 -18 0 -19 2 -9 15 7 8 9 15
5 15 -4 0 -3 6 3 12 7 9 5 19 -8 36 -10 12 -20 22 -23 22 -2 0 -62 35 -133 78
-71 43 -137 81 -147 85 -9 4 -43 24 -75 45 -31 22 -88 56 -125 76 l-68 36 -26
-20 c-14 -11 -21 -20 -14 -20 6 0 11 -7 11 -15 0 -13 -4 -13 -22 -3 -31 17
-39 30 -34 51 3 12 -2 17 -16 17 -16 0 -19 -6 -16 -32 3 -34 -23 -17 368 -246
80 -46 231 -137 335 -202 105 -64 229 -140 277 -169 l87 -52 163 99 c90 55
224 137 298 184 74 47 244 150 378 228 166 99 242 149 242 161 0 9 -15 26 -33
36 l-32 19 -70 -37 c-39 -21 -81 -44 -95 -51 -14 -7 -27 -15 -30 -18 -3 -3
-21 -14 -40 -24 -19 -11 -43 -24 -52 -30 -9 -6 -20 -7 -24 -3 -9 9 18 30 66
53 19 9 59 32 87 51 29 19 59 36 67 37 9 1 32 16 53 33 21 16 48 33 60 37 26
8 75 55 68 66 -3 4 12 -1 32 -11 44 -22 56 -23 84 -6 17 10 22 9 33 -5 26 -35
69 -13 80 40 5 21 4 32 -4 32 -6 0 -8 5 -4 11 3 6 8 28 11 48 2 20 8 49 13 64
5 16 6 25 0 22 -5 -3 -8 4 -7 15 1 11 5 20 9 20 14 0 8 58 -8 74 -19 20 -28
20 -44 1 -14 -17 -40 -20 -40 -5 0 6 -6 10 -14 10 -8 0 -16 4 -18 9 -1 5 -27
16 -56 25 -29 8 -50 11 -47 7 5 -9 -23 -26 -37 -23 -5 1 -8 -2 -8 -8 0 -5 -7
-10 -15 -10 -8 0 -15 -5 -15 -11 0 -5 -4 -8 -9 -4 -5 3 -25 -11 -45 -31 -19
-20 -39 -33 -45 -30 -14 9 -40 -4 -51 -24 -8 -15 -6 -17 10 -13 11 3 23 9 26
14 11 19 24 8 24 -22 0 -26 -3 -30 -17 -24 -43 17 -53 18 -47 1 5 -14 24 -20
62 -19 6 1 12 -5 12 -13 0 -23 23 -64 35 -64 7 0 23 -8 36 -18 l22 -19 -32 -6
c-17 -4 -43 -19 -56 -33 -14 -15 -25 -24 -25 -20 0 4 -10 -2 -22 -14 -20 -19
-33 -24 -50 -21 -5 0 -8 -3 -8 -9 0 -5 -6 -10 -12 -10 -7 0 -31 -14 -52 -30
-22 -17 -46 -30 -53 -30 -7 0 -36 -16 -63 -35 -28 -20 -56 -33 -62 -29 -7 4
-8 3 -4 -4 4 -7 2 -12 -4 -12 -6 0 -30 -13 -53 -29 -23 -16 -78 -47 -122 -71
-44 -23 -87 -48 -96 -56 -9 -8 -19 -11 -22 -7 -4 3 -7 1 -7 -5 0 -7 -7 -12
-15 -12 -8 0 -15 -4 -15 -10 0 -5 -7 -10 -15 -10 -8 0 -24 -8 -35 -17 -11 -10
-23 -17 -26 -15 -2 1 -12 -4 -20 -13 -19 -19 -41 -20 -41 -1 0 7 7 13 16 12
16 -1 54 32 58 51 1 6 -7 9 -20 6 -20 -4 -19 -2 8 23 25 22 26 24 5 12 -18
-11 -31 -12 -47 -5 -18 8 -22 19 -25 73 l-3 63 25 -22 c14 -12 26 -25 28 -30
2 -4 7 -5 11 -3 4 3 20 7 36 10 16 3 31 9 34 13 3 4 41 26 83 47 43 22 80 46
83 54 3 7 9 10 15 7 5 -3 10 -2 10 2 0 5 35 26 78 48 42 22 79 43 80 48 2 4 8
7 14 7 5 0 28 15 51 34 23 19 54 37 70 41 15 4 27 10 27 14 0 3 16 15 35 25
20 11 38 30 41 43 10 40 10 113 0 116 -15 5 3 27 22 27 10 0 28 18 42 40 14
22 30 40 37 40 7 0 13 5 13 10 0 15 27 12 53 -5 20 -13 25 -13 45 1 12 8 22
23 22 32 0 19 -49 72 -67 72 -7 0 -13 5 -13 10 0 6 -9 10 -20 10 -11 0 -20 5
-20 10 0 6 -7 10 -15 10 -8 0 -15 5 -15 10 0 6 -5 10 -11 10 -6 0 -24 11 -41
25 -16 14 -38 25 -48 25 -25 0 -45 -28 -42 -60 2 -16 -3 -32 -10 -37 -13 -8
-78 -135 -78 -153 0 -6 3 -9 8 -8 4 1 17 -3 28 -10 12 -6 24 -8 28 -5 3 3 6 1
6 -5 0 -6 14 -18 30 -27 29 -15 30 -18 30 -80 0 -36 -4 -65 -9 -65 -5 0 -12
29 -16 64 -6 64 -7 65 -51 91 -25 15 -51 24 -59 21 -7 -2 -28 -25 -47 -50 -32
-44 -58 -60 -88 -56 -8 1 -12 -1 -8 -5 4 -5 -16 -23 -45 -41 -37 -23 -54 -29
-59 -21 -6 9 -8 8 -8 -1 0 -17 -40 -51 -58 -52 -18 0 -70 -30 -94 -52 -10 -10
-28 -18 -40 -18 -12 0 -19 -3 -15 -6 3 -3 -6 -16 -19 -28 l-26 -21 22 -28 c26
-33 40 -34 90 -2 22 14 44 25 50 25 5 0 10 5 10 11 0 5 5 7 10 4 6 -3 10 -1
10 4 0 6 7 11 15 11 8 0 15 5 15 11 0 5 5 7 10 4 6 -3 10 -1 10 5 0 6 4 9 9 6
5 -3 14 1 21 9 7 9 29 23 49 32 20 9 38 19 41 22 7 8 38 26 86 52 68 35 97 62
97 92 0 17 4 24 11 20 6 -4 5 0 -2 9 -9 11 -10 18 -2 23 13 8 32 -4 25 -16 -4
-5 0 -9 8 -9 11 0 12 -9 7 -37 -4 -26 -11 -37 -21 -35 -8 2 -11 0 -7 -4 9 -8
-45 -47 -79 -58 -13 -4 -23 -12 -23 -17 0 -5 -6 -9 -14 -9 -8 0 -16 -3 -18 -7
-5 -12 -88 -64 -88 -56 0 4 -12 -4 -27 -18 -16 -14 -48 -34 -73 -46 -97 -44
-149 -72 -160 -83 -3 -3 -18 -11 -33 -18 -26 -11 -30 -9 -77 39 -28 29 -50 55
-50 59 0 4 -38 8 -85 9 -47 0 -85 -3 -85 -8 0 -10 -26 -9 -36 2 -12 11 -64 8
-64 -4 0 -13 -67 -79 -73 -72 -3 2 -8 -5 -12 -16 -7 -24 -13 -25 -52 -9 -15 6
-31 12 -35 12 -3 1 -18 11 -32 24 -15 12 -33 22 -40 22 -8 0 -18 5 -21 11 -4
6 -19 9 -34 7 -21 -2 -35 6 -59 34 -18 19 -32 45 -32 57 0 21 1 21 30 6 17 -9
30 -20 30 -26 0 -6 4 -8 9 -4 5 3 12 1 16 -4 3 -5 30 -21 61 -35 30 -14 67
-35 81 -46 32 -25 35 -25 66 4 29 27 27 61 -5 69 -13 4 -17 10 -12 18 4 8 3
10 -4 5 -10 -6 -59 18 -72 35 -3 4 -19 11 -35 15 -37 9 -95 43 -95 55 0 5 -7
9 -15 9 -8 0 -15 4 -15 9 0 5 -12 11 -28 14 -15 3 -41 16 -57 28 -16 13 -36
24 -44 26 -16 2 -61 51 -61 66 0 4 -9 18 -20 30 -11 12 -19 28 -18 37 3 19
-42 112 -60 123 -7 5 -10 12 -7 17 3 4 -2 11 -11 14 -12 4 -15 14 -11 34 13
65 -41 81 -107 31z m84 -9 c0 -11 -6 -20 -13 -20 -15 0 -201 -118 -205 -131
-6 -15 -22 -10 -22 6 0 13 211 162 233 164 4 1 7 -8 7 -19z m1788 -59 c61 -40
112 -80 112 -88 0 -18 6 -21 -127 66 -62 41 -113 81 -113 89 0 17 -6 20 128
-67z m-1740 -77 c24 -42 41 -82 38 -89 -3 -8 -23 -24 -45 -37 l-41 -23 0 -67
c0 -38 4 -68 9 -68 5 0 45 -22 88 -49 43 -26 120 -72 171 -100 51 -29 90 -56
87 -61 -3 -5 -89 41 -190 102 l-185 112 0 68 0 68 48 27 49 27 -40 68 c-21 37
-43 65 -48 62 -6 -3 -5 -14 4 -27 8 -12 17 -38 21 -58 8 -45 -10 -64 -54 -54
-26 6 -30 11 -30 40 0 26 -3 33 -15 29 -8 -4 -15 -1 -15 5 0 13 45 26 59 17
14 -9 24 11 14 29 -8 13 -16 10 -57 -16 -32 -19 -52 -27 -58 -21 -7 7 -2 15
13 25 66 40 115 66 124 67 6 0 29 -34 53 -76z m1685 40 c37 -19 67 -42 67 -50
0 -19 0 -19 -70 22 -33 20 -62 35 -64 33 -2 -2 -21 -33 -42 -69 -21 -35 -39
-59 -42 -52 -3 11 68 152 78 152 3 0 36 -16 73 -36z m-18 -48 c11 3 29 -2 40
-11 19 -16 19 -16 -7 -11 -27 6 -27 5 -16 -19 13 -28 8 -35 -34 -53 -25 -10
-30 -9 -44 13 -14 21 -14 28 -3 41 8 9 12 29 10 43 -3 25 -2 25 16 9 10 -10
27 -15 38 -12z m-1967 -83 c37 -20 69 -38 70 -39 2 -1 4 -32 4 -68 l1 -66 -83
-55 -82 -56 -64 38 c-63 37 -64 38 -64 80 0 24 -4 43 -10 43 -17 0 -11 18 15
44 14 14 25 32 25 40 0 13 93 75 113 76 5 0 39 -17 75 -37z m2307 2 c36 -23
55 -42 55 -55 0 -11 11 -27 25 -36 23 -15 24 -19 11 -33 -8 -9 -16 -33 -18
-54 -3 -35 -9 -42 -61 -75 l-57 -35 -87 59 c-48 32 -86 62 -85 67 1 4 2 33 2
65 l0 57 68 36 c37 20 73 37 79 38 7 0 37 -15 68 -34z m-2535 -20 c0 -19 -4
-35 -10 -35 -5 0 -10 16 -10 35 0 19 5 35 10 35 6 0 10 -16 10 -35z m2640 0
c0 -19 -4 -35 -10 -35 -5 0 -10 16 -10 35 0 19 5 35 10 35 6 0 10 -16 10 -35z
m-2039 -33 c11 -11 17 -26 13 -35 -6 -17 62 -60 328 -207 114 -63 134 -78 120
-87 -13 -8 -24 -7 -47 7 -16 9 -111 63 -210 119 -99 56 -190 110 -202 119 -13
11 -23 33 -26 60 -6 48 -4 49 24 24z m1435 2 c-3 -9 -6 -28 -6 -43 0 -26 -17
-38 -225 -159 -124 -73 -230 -132 -234 -132 -5 0 -11 6 -14 13 -3 7 78 60 219
142 159 92 224 135 224 148 0 19 19 46 34 47 4 0 5 -7 2 -16z m-1488 -33 c-1
-14 4 -37 11 -49 17 -32 11 -34 -27 -10 -19 12 -29 25 -25 31 4 7 8 17 9 22 0
6 2 15 2 21 1 6 9 11 17 11 10 0 14 -9 13 -26z m92 -156 c130 -76 125 -73 118
-81 -8 -7 -248 136 -248 148 0 5 3 7 8 5 4 -2 59 -35 122 -72z m1490 56 c0 -5
-6 -11 -13 -14 -8 -3 -40 -22 -71 -44 -53 -34 -86 -55 -183 -115 -24 -14 -33
-16 -33 -6 0 7 28 28 63 47 34 18 71 42 82 51 23 20 136 89 148 90 4 0 7 -4 7
-9z m-1360 -93 c0 -10 -25 2 -55 26 -17 14 -14 14 18 -1 20 -9 37 -21 37 -25z
m1850 19 c0 -12 -9 -28 -21 -35 -25 -16 -41 -6 -18 11 8 7 18 20 22 30 9 24
17 21 17 -6z m-2295 -52 c33 -19 54 -35 46 -35 -7 0 -39 14 -70 32 -31 17 -51
26 -46 20 6 -5 57 -36 115 -67 96 -52 249 -140 550 -315 63 -37 134 -77 157
-89 41 -21 60 -38 50 -47 -5 -5 -148 77 -730 416 -138 80 -175 106 -160 111
26 11 23 12 88 -26z m2049 29 c18 -7 22 -24 6 -24 -9 0 -609 -347 -807 -466
-80 -48 -83 -50 -83 -31 0 6 28 27 63 46 34 19 139 79 232 134 94 55 240 140
325 190 85 49 160 94 167 99 7 5 18 6 24 2 9 -5 10 -2 6 9 -4 12 2 21 21 31
33 18 27 17 46 10z m-564 -99 c0 -8 -7 -15 -15 -15 -16 0 -20 12 -8 23 11 12
23 8 23 -8z m-586 -3 c6 -11 -149 -166 -161 -161 -41 18 -213 123 -213 131 0
14 12 8 120 -56 l95 -57 70 74 c72 77 80 83 89 69z m220 -32 c16 -22 44 -53
61 -70 l33 -32 107 61 c103 58 143 75 117 49 -6 -6 -60 -40 -119 -74 l-108
-62 -67 66 c-38 37 -68 74 -68 84 0 27 12 21 44 -22z m-64 20 c0 -6 -28 -10
-65 -10 -37 0 -65 4 -65 10 0 6 28 10 65 10 37 0 65 -4 65 -10z m970 -38 c0
-5 -15 -16 -34 -25 -19 -9 -180 -102 -357 -207 -177 -105 -325 -188 -328 -184
-8 9 5 17 318 203 374 223 401 237 401 213z m-999 -12 c27 -15 24 -38 -11 -70
l-31 -29 -24 23 c-26 25 -34 71 -12 79 21 9 58 7 78 -3z m73 -90 c4 -55 4
-105 1 -110 -3 -5 10 -17 29 -27 22 -10 36 -24 36 -35 0 -17 -5 -15 -45 12
-44 30 -44 31 -47 95 l-3 64 -35 -30 c-19 -16 -30 -29 -25 -28 27 4 45 -2 45
-16 0 -8 -5 -15 -11 -15 -6 0 -8 -9 -3 -22 4 -13 7 -29 7 -36 0 -6 3 -10 5 -7
5 5 31 -25 32 -37 0 -13 -38 -9 -47 5 -4 6 -18 18 -31 25 -24 13 -48 6 -85
-26 -16 -14 -19 -14 -35 3 -9 10 -11 15 -4 11 6 -4 12 -3 12 3 0 5 7 16 15 24
8 8 15 35 17 61 3 45 13 59 24 33 3 -8 12 -14 20 -14 9 0 -3 17 -28 38 -48 43
-43 53 8 14 18 -14 36 -25 39 -25 3 0 23 12 43 27 20 15 39 29 41 30 3 2 4 21
3 43 -2 22 1 40 6 40 5 0 12 -45 16 -100z m-914 -20 c299 -171 437 -260 405
-260 -3 0 -76 42 -163 94 -86 51 -212 125 -279 165 -71 42 -123 78 -123 87 0
11 11 8 43 -14 23 -16 76 -48 117 -72z m1494 -26 c-12 -5 -179 -103 -241 -142
-23 -15 -74 -47 -112 -71 -39 -24 -68 -48 -65 -53 3 -5 13 -7 23 -4 9 3 3 -5
-14 -19 -29 -24 -29 -25 -10 -39 20 -15 20 -15 0 -22 -11 -4 -38 -19 -60 -34
-22 -15 -49 -30 -59 -34 -19 -6 -19 -6 -4 11 13 14 16 35 14 95 -3 74 -2 76
17 63 17 -12 25 -10 65 15 26 16 67 39 92 52 25 13 47 26 50 29 3 4 22 16 43
28 20 11 54 31 74 42 21 12 56 33 78 48 22 14 46 27 54 29 7 1 20 10 28 18 12
12 18 13 27 3 8 -8 8 -13 0 -15z m-625 -195 l62 -56 4 -67 4 -66 -69 -47 -70
-46 -67 45 -68 45 1 68 2 68 58 50 c33 27 61 54 63 59 5 13 12 9 80 -53z
m-212 25 c-3 -4 -2 -15 3 -25 7 -12 7 -20 0 -24 -5 -3 -10 -1 -10 5 0 6 -4 9
-9 6 -10 -6 -22 30 -13 38 3 3 12 6 20 6 9 0 12 -3 9 -6z m53 -3 c0 -10 -30
-24 -37 -17 -3 3 -2 9 2 15 8 13 35 15 35 2z m220 -6 c10 -13 9 -15 -9 -15
-12 0 -21 6 -21 15 0 8 4 15 9 15 5 0 14 -7 21 -15z m190 -120 c0 -8 -2 -15
-4 -15 -2 0 -12 -3 -21 -7 -15 -5 -16 -3 -6 15 13 25 31 29 31 7z m-315 -205
c-3 -5 -10 -10 -16 -10 -5 0 -9 5 -9 10 0 6 7 10 16 10 8 0 12 -4 9 -10z"/>
<path d="M1376 1773 c-5 -11 -1 -22 11 -30 24 -18 37 -11 41 20 3 23 0 27 -21
27 -14 0 -28 -7 -31 -17z"/>
<path d="M3107 1783 c-4 -3 -7 -17 -7 -30 0 -29 26 -29 44 0 8 14 8 20 -4 27
-18 12 -24 12 -33 3z"/>
<path d="M1057 1702 c-46 -34 -67 -72 -67 -126 0 -38 4 -43 45 -69 25 -16 49
-27 53 -25 5 1 36 21 70 43 l62 40 0 53 c0 28 -4 52 -10 52 -5 0 -32 14 -58
30 -27 17 -51 30 -53 29 -2 0 -21 -13 -42 -27z m75 -23 c17 -9 18 -13 7 -21
-10 -7 -9 -8 6 -4 11 3 28 -1 38 -8 20 -16 12 -52 -19 -76 -16 -14 -17 -13
-12 13 3 15 2 27 -2 27 -4 0 -13 11 -20 25 -10 19 -16 22 -27 14 -10 -9 -14
-7 -19 5 -4 10 -13 15 -21 12 -8 -3 -11 -1 -8 4 3 6 18 7 32 4 18 -5 24 -3 19
5 -9 14 0 14 26 0z m-57 -39 c3 -5 0 -10 -8 -10 -8 0 -18 -7 -21 -16 -4 -9 -9
-14 -12 -11 -7 7 14 47 26 47 5 0 12 -4 15 -10z m40 -50 c0 -16 -6 -26 -18
-28 -19 -4 -32 20 -23 44 9 25 41 13 41 -16z m-70 -38 c-8 -8 -25 10 -25 26 0
13 2 13 14 -4 8 -10 13 -21 11 -22z m40 -22 c17 -19 17 -19 -8 -7 -14 6 -23
15 -21 19 7 11 9 10 29 -12z"/>
<path d="M3353 1688 c-52 -29 -53 -30 -53 -76 1 -47 1 -47 66 -89 36 -24 71
-43 78 -43 7 0 32 14 54 30 34 24 42 36 42 62 0 54 -28 102 -74 126 -50 27
-48 27 -113 -10z m74 -4 c-3 -4 8 -16 25 -28 17 -11 33 -27 34 -34 1 -7 0 -8
-3 -2 -2 5 -9 10 -15 10 -5 0 -24 10 -41 22 -17 12 -27 16 -23 9 5 -8 0 -22
-14 -36 -16 -17 -20 -29 -15 -46 7 -21 6 -22 -9 -7 -8 9 -21 18 -27 20 -8 3
-10 14 -5 32 5 19 19 33 49 46 45 21 54 24 44 14z m22 -78 c13 -16 4 -46 -14
-46 -7 0 -18 7 -25 15 -10 12 -10 18 0 30 15 19 24 19 39 1z m57 -31 c-4 -19
-11 -33 -15 -31 -4 3 -17 -1 -27 -9 -22 -17 -34 -19 -34 -6 0 5 11 12 25 15
14 4 25 13 25 21 0 8 5 15 10 15 6 0 9 3 9 8 -3 17 1 35 7 29 4 -3 3 -22 0
-42z"/>
<path d="M3380 1650 c0 -5 5 -10 10 -10 6 0 10 5 10 10 0 6 -4 10 -10 10 -5 0
-10 -4 -10 -10z"/>
<path d="M3294 1424 c-18 -14 -18 -15 4 -4 12 6 22 13 22 15 0 8 -5 6 -26 -11z"/>
<path d="M2232 1248 c4 -28 39 -36 57 -14 18 21 5 36 -30 36 -26 0 -30 -3 -27
-22z"/>
<path d="M2209 923 c-50 -42 -54 -49 -57 -94 -3 -47 -3 -48 52 -89 l54 -41 56
37 c56 37 56 37 56 88 0 49 -2 53 -53 97 l-53 47 -55 -45z m31 -23 c0 -5 -5
-10 -11 -10 -5 0 -7 5 -4 10 3 6 8 10 11 10 2 0 4 -4 4 -10z m60 -10 c11 -11
20 -30 20 -42 0 -22 -1 -22 -25 6 -21 24 -27 27 -40 16 -8 -7 -15 -10 -15 -6
0 4 -12 -1 -27 -11 -21 -14 -25 -14 -21 -3 2 8 17 21 31 28 15 7 27 17 27 23
0 16 29 10 50 -11z m-20 -55 c17 -20 5 -45 -20 -45 -11 0 -23 7 -26 15 -6 15
11 45 26 45 4 0 13 -7 20 -15z m44 -52 c-24 -17 -31 -7 -11 15 10 10 18 27 18
38 1 10 4 6 6 -11 3 -20 -1 -33 -13 -42z m-124 21 c0 -8 -5 -12 -10 -9 -6 4
-8 11 -5 16 9 14 15 11 15 -7z m50 -45 c0 -4 -7 -6 -15 -3 -8 4 -15 10 -15 15
0 4 7 6 15 3 8 -4 15 -10 15 -15z"/>
<path d="M1380 1420 c0 -6 7 -10 15 -10 8 0 15 2 15 4 0 2 -7 6 -15 10 -8 3
-15 1 -15 -4z"/>
<path d="M1505 1373 c6 -5 33 -22 60 -37 28 -15 41 -20 30 -11 -22 19 -106 63
-90 48z"/>
<path d="M1486 1349 c3 -5 12 -9 20 -9 8 0 14 -4 14 -10 0 -5 5 -10 11 -10 8
0 8 4 0 14 -13 16 -54 29 -45 15z"/>
<path d="M2947 1316 c-70 -40 -76 -46 -48 -46 12 0 20 4 16 9 -4 8 30 27 45
24 3 0 16 10 30 23 32 31 27 30 -43 -10z"/>
<path d="M1220 1336 c0 -2 8 -10 18 -17 15 -13 16 -12 3 4 -13 16 -21 21 -21
13z"/>
<path d="M2900 1319 c-17 -13 -18 -17 -5 -10 33 17 51 31 40 31 -5 0 -21 -10
-35 -21z"/>
<path d="M1550 1316 c0 -7 72 -47 77 -43 2 3 -11 14 -30 26 -33 20 -47 25 -47
17z"/>
<path d="M1640 1294 c0 -2 15 -11 33 -20 32 -16 32 -16 12 3 -17 17 -45 27
-45 17z"/>
<path d="M2773 1252 c-28 -15 -52 -30 -52 -35 -1 -8 64 24 94 47 28 21 19 19
-42 -12z"/>
<path d="M2803 1233 c-70 -41 -79 -58 -11 -22 38 21 89 60 77 59 -2 -1 -32
-17 -66 -37z"/>
<path d="M1645 1249 c4 -6 9 -8 12 -5 3 3 15 1 27 -5 20 -10 20 -10 2 5 -22
18 -51 22 -41 5z"/>
<path d="M1729 1209 c13 -11 26 -17 29 -14 7 6 -29 34 -43 34 -5 0 1 -9 14
-20z"/>
<path d="M1770 1220 c35 -24 54 -31 30 -11 -14 11 -29 21 -35 21 -5 0 -3 -5 5
-10z"/>
<path d="M1830 1189 c0 -5 5 -7 10 -4 6 3 10 8 10 11 0 2 -4 4 -10 4 -5 0 -10
-5 -10 -11z"/>
<path d="M2716 1182 c-3 -5 1 -9 9 -9 8 0 12 4 9 9 -3 4 -7 8 -9 8 -2 0 -6 -4
-9 -8z"/>
<path d="M1850 1174 c0 -2 9 -8 20 -14 11 -6 20 -7 20 -2 0 6 -9 12 -20 15
-11 3 -20 3 -20 1z"/>
<path d="M2680 1160 c-9 -6 -10 -10 -3 -10 6 0 15 5 18 10 8 12 4 12 -15 0z"/>
<path d="M2622 1125 c-16 -14 -37 -25 -45 -25 -9 0 -18 -4 -21 -9 -9 -14 35 0
64 19 14 9 32 19 40 22 9 3 10 7 3 11 -6 4 -25 -4 -41 -18z"/>
<path d="M2506 1061 c-3 -4 6 -6 19 -3 14 2 25 6 25 8 0 8 -39 4 -44 -5z"/>
<path d="M1935 900 c-3 -6 1 -7 9 -4 18 7 21 14 7 14 -6 0 -13 -4 -16 -10z"/>
<path d="M1955 880 c3 -5 11 -10 16 -10 6 0 7 5 4 10 -3 6 -11 10 -16 10 -6 0
-7 -4 -4 -10z"/>
<path d="M1038 3067 c-41 -28 -47 -37 -50 -73 -3 -39 0 -44 50 -88 l53 -45 64
31 65 32 0 47 c0 45 -1 47 -59 88 -33 22 -63 41 -68 40 -4 0 -29 -15 -55 -32z
m16 -42 c-4 -8 -11 -15 -16 -15 -6 0 -5 6 2 15 7 8 14 15 16 15 2 0 1 -7 -2
-15z m126 -50 c0 -27 -15 -49 -28 -41 -6 3 -14 0 -19 -7 -4 -8 -17 -17 -29
-21 -17 -5 -29 3 -57 36 -20 23 -33 46 -30 51 3 5 14 -5 25 -21 23 -37 50 -47
77 -30 20 12 36 51 32 78 -2 10 2 9 13 -5 8 -11 15 -29 16 -40z m-62 12 c3
-22 -1 -27 -18 -27 -23 0 -35 22 -26 46 10 25 41 12 44 -19z"/>
<path d="M3363 3057 c-61 -41 -62 -43 -63 -87 0 -45 1 -45 59 -77 l58 -32 65
45 66 45 -9 37 c-5 20 -9 40 -9 44 0 11 -81 68 -94 67 -6 0 -39 -19 -73 -42z
m77 -1 c0 -3 -4 -8 -10 -11 -5 -3 -10 -1 -10 4 0 6 5 11 10 11 6 0 10 -2 10
-4z m63 -60 c8 -23 5 -31 -17 -51 -68 -63 -183 -17 -136 55 5 8 10 11 10 6 0
-5 8 -2 17 5 15 12 16 12 8 -1 -15 -24 -11 -44 12 -63 17 -14 26 -15 45 -6 36
16 51 45 37 70 -8 17 -8 20 2 17 7 -2 17 -17 22 -32z m-55 -3 c-2 -20 -9 -28
-23 -28 -23 0 -33 34 -13 46 26 17 39 10 36 -18z"/>
<path d="M1835 1989 c-4 -12 -2 -26 4 -32 8 -8 11 -6 11 8 0 14 17 2 64 -45
35 -36 82 -75 105 -88 56 -32 52 -21 -8 17 -51 33 -151 132 -151 150 0 19 -18
12 -25 -10z"/>
<path d="M2526 1921 c-10 -14 -35 -39 -57 -55 -21 -16 -37 -32 -35 -34 8 -7
106 70 106 84 0 4 7 12 16 19 14 10 14 12 2 12 -8 0 -23 -12 -32 -26z"/>
<path d="M2400 1820 c-9 -6 -10 -10 -3 -10 6 0 15 5 18 10 8 12 4 12 -15 0z"/>
<path d="M2095 1795 c17 -8 41 -14 55 -14 15 0 5 6 -25 14 -62 17 -69 17 -30
0z"/>
<path d="M2345 1800 c-13 -6 -15 -9 -5 -9 8 0 22 4 30 9 18 12 2 12 -25 0z"/>
<path d="M2298 1783 c7 -3 16 -2 19 1 4 3 -2 6 -13 5 -11 0 -14 -3 -6 -6z"/>
<path d="M2218 1773 c12 -2 30 -2 40 0 9 3 -1 5 -23 4 -22 0 -30 -2 -17 -4z"/>
<path d="M1383 2863 c-16 -6 -17 -29 -3 -38 13 -8 40 13 40 31 0 14 -14 17
-37 7z"/>
<path d="M3102 2854 c5 -26 37 -42 48 -24 11 18 -6 40 -32 40 -13 0 -18 -6
-16 -16z"/>
<path d="M1801 4076 c-13 -15 -5 -62 11 -72 5 -3 -9 -19 -32 -36 -43 -32 -68
-31 -77 1 -2 10 -15 24 -28 31 -20 11 -28 10 -50 -4 -30 -20 -32 -42 -5 -76
24 -30 24 -36 6 -43 -10 -4 -14 0 -11 13 5 24 -18 48 -52 56 -36 9 -79 -37
-63 -67 7 -13 7 -19 0 -19 -5 0 -10 4 -10 10 0 19 -36 30 -55 16 -16 -12 -17
-17 -6 -44 7 -17 19 -33 27 -36 17 -6 19 -26 3 -26 -7 0 -18 -8 -26 -17 -13
-16 -13 -16 -3 5 10 19 8 28 -6 45 -34 40 -46 47 -65 36 -34 -18 -41 -45 -22
-81 22 -42 24 -56 9 -61 -7 -3 -13 0 -13 6 -1 37 -29 77 -53 77 -8 0 -28 -11
-45 -24 -28 -23 -29 -25 -15 -52 8 -16 21 -34 28 -40 11 -8 10 -13 -5 -24 -10
-8 -15 -11 -11 -6 12 14 -22 66 -50 77 -23 9 -30 7 -50 -16 -26 -30 -23 -59 9
-87 11 -9 15 -19 10 -22 -5 -3 -24 12 -41 34 -36 46 -42 48 -70 20 -32 -32
-25 -62 25 -108 42 -38 48 -40 73 -29 15 6 33 17 40 24 7 7 20 13 28 13 8 0
14 5 14 10 0 6 6 10 13 10 7 0 23 9 35 21 13 11 32 22 44 24 12 3 24 8 27 13
3 5 21 15 39 23 17 8 32 17 32 21 0 5 7 8 15 8 8 0 15 5 15 10 0 6 4 10 9 10
8 0 45 20 136 75 22 13 46 22 53 20 7 -3 11 -1 8 4 -7 11 84 72 194 128 19 10
37 21 38 26 2 4 9 7 16 7 23 0 46 34 39 59 -4 17 -11 21 -27 17 -16 -4 -26 2
-41 24 -22 32 -46 38 -64 16z m44 -31 c0 -10 -7 -20 -15 -22 -12 -4 -12 -3 -2
5 11 7 11 10 -3 16 -9 3 -13 11 -10 16 10 16 30 6 30 -15z m75 -33 c0 -4 -80
-55 -177 -112 -98 -58 -281 -167 -407 -242 -126 -76 -232 -135 -235 -132 -7 6
-24 -5 279 175 140 84 316 189 390 234 138 85 150 91 150 77z m-237 -53 c17
-31 17 -31 -4 -26 -15 4 -19 2 -15 -9 10 -27 -13 -14 -29 16 -14 27 -14 30 3
39 24 15 25 14 45 -20z m-109 -45 c9 -8 16 -19 16 -24 0 -11 -29 -40 -39 -40
-4 0 -13 12 -20 26 -9 20 -9 30 0 40 15 18 24 18 43 -2z m-84 -99 c0 -3 -4 -5
-8 -5 -11 0 -43 56 -35 64 5 5 43 -46 43 -59z m36 24 c3 -6 1 -15 -5 -20 -6
-5 -9 -6 -6 -3 3 4 0 13 -6 21 -8 9 -8 13 -1 13 6 0 14 -5 18 -11z m-136 -18
c0 -5 -6 -11 -12 -14 -7 -2 -5 -3 5 -1 25 3 33 -24 13 -44 -12 -13 -18 -13
-28 -4 -9 9 -8 12 4 12 9 0 19 4 22 9 4 5 -2 7 -13 4 -21 -5 -35 11 -27 32 6
16 36 21 36 6z m-92 -76 c16 -35 15 -38 -8 -32 -17 4 -20 2 -14 -15 9 -30 -12
-14 -30 22 -16 32 -3 42 23 18 11 -11 12 -9 6 10 -9 30 9 28 23 -3z m-99 -64
c7 -13 6 -23 -3 -36 -23 -32 -67 2 -52 40 8 21 43 19 55 -4z m-127 -53 c-7 -7
-12 -18 -12 -25 0 -17 27 -17 33 0 2 6 8 9 13 4 12 -12 -22 -41 -40 -34 -34
13 -33 67 1 67 13 0 14 -3 5 -12z"/>
<path d="M1640 3960 c0 -5 5 -10 10 -10 6 0 10 5 10 10 0 6 -4 10 -10 10 -5 0
-10 -4 -10 -10z"/>
<path d="M1540 3903 c1 -18 18 -35 24 -24 4 6 4 16 1 21 -7 12 -25 13 -25 3z"/>
<path d="M1155 3670 c-3 -6 1 -13 10 -16 19 -8 30 0 20 15 -8 14 -22 14 -30 1z"/>
<path d="M2659 4049 c-14 -14 -24 -18 -28 -11 -10 17 -49 3 -57 -20 -4 -14 1
-24 15 -34 11 -8 26 -20 33 -28 7 -7 19 -11 26 -8 6 2 12 -1 12 -7 0 -6 6 -11
13 -11 8 0 22 -9 32 -20 22 -25 73 -27 82 -3 4 11 -7 28 -38 55 -28 25 -39 41
-31 45 17 7 15 27 -6 46 -24 22 -28 21 -53 -4z m46 -9 c3 -5 4 -14 0 -20 -8
-13 -35 -1 -35 16 0 16 26 19 35 4z m-19 -67 c43 -27 79 -53 81 -60 3 -6 -33
10 -78 38 -45 27 -86 49 -91 49 -4 0 -8 5 -8 10 0 18 17 11 96 -37z"/>
<path d="M2080 4028 c-39 -20 -62 -35 -92 -60 -20 -17 -33 -22 -50 -19 -5 0
-8 -3 -8 -9 0 -5 -3 -9 -7 -8 -14 4 -94 -43 -100 -58 -7 -19 6 -32 16 -15 4 7
39 29 77 49 158 84 234 127 234 134 0 11 -33 5 -70 -14z"/>
<path d="M3167 4043 c-24 -24 28 -79 119 -126 16 -8 39 -23 51 -34 12 -10 61
-46 110 -80 104 -73 176 -135 288 -248 110 -110 235 -251 235 -264 0 -4 13
-17 29 -29 21 -15 32 -18 37 -10 4 6 3 8 -3 5 -6 -4 -30 19 -54 51 -181 242
-415 459 -683 633 -108 69 -131 89 -105 89 17 0 243 -157 342 -237 157 -128
314 -287 416 -423 80 -106 80 -106 77 -86 -1 10 -8 21 -15 25 -7 5 -12 12 -12
17 1 5 -6 17 -14 27 -8 9 -15 22 -15 27 0 6 -4 10 -8 10 -5 0 -13 8 -18 19
-23 48 -195 229 -332 349 -69 62 -228 187 -261 207 -9 5 -35 22 -58 37 -23 15
-46 28 -52 28 -6 0 -11 5 -11 10 0 11 -53 14 -63 3z"/>
<path d="M1736 4014 c-4 -10 -2 -22 3 -27 7 -7 13 -5 17 7 4 10 2 22 -3 27 -7
7 -13 5 -17 -7z"/>
<path d="M2795 4000 c-3 -6 1 -7 9 -4 9 3 16 2 16 -4 0 -6 -6 -12 -12 -15 -7
-3 -3 -4 9 -4 22 1 26 16 8 29 -14 10 -23 10 -30 -2z"/>
<path d="M2913 3962 c-29 -22 -44 -63 -29 -77 6 -5 9 -9 7 -8 -7 4 -41 -18
-41 -26 0 -17 37 -48 95 -81 33 -19 63 -38 67 -44 4 -6 8 -7 8 -3 0 4 17 -4
37 -18 21 -14 43 -25 50 -25 7 0 13 -4 13 -10 0 -5 6 -10 13 -10 8 0 32 -13
54 -29 22 -16 49 -32 62 -36 27 -8 54 11 46 34 -3 12 2 16 21 18 31 1 39 9 47
44 5 20 1 28 -22 42 -29 17 -61 14 -61 -5 0 -5 -4 -6 -10 -3 -5 3 -10 17 -10
29 0 45 -40 55 -80 20 -14 -12 -15 -9 -12 19 5 46 -18 65 -56 46 -37 -18 -50
-23 -32 -10 20 14 3 58 -32 79 -25 15 -28 15 -49 -3 -16 -14 -21 -16 -17 -5 8
21 -8 57 -29 69 -14 7 -24 5 -40 -7z m45 -32 c5 -13 3 -13 -13 0 -17 14 -17
14 -7 -7 17 -31 15 -43 -8 -43 -26 0 -35 22 -20 50 13 23 41 24 48 0z m75 -55
c-3 -8 -1 -15 5 -15 6 0 12 6 15 13 2 6 7 9 11 5 11 -9 -23 -70 -35 -63 -5 4
-7 11 -4 16 4 5 3 14 -1 20 -4 8 -9 7 -15 -2 -4 -7 -11 -11 -14 -7 -9 9 25 59
36 53 4 -3 6 -12 2 -20z m-67 -24 c0 -15 -3 -17 -18 -7 -17 10 -17 11 0 18 9
3 17 7 17 7 1 1 1 -7 1 -18z m110 -112 c112 -67 204 -125 204 -129 0 -8 -362
201 -405 234 -55 42 17 4 201 -105z m69 59 c-10 -47 -17 -55 -26 -30 -6 15
-14 20 -26 15 -17 -6 -17 -5 0 13 15 17 19 17 28 4 9 -13 10 -13 6 2 -6 17 0
28 15 28 6 0 6 -14 3 -32z m86 -58 c-3 -17 -11 -30 -16 -30 -6 1 -8 9 -7 18 3
13 1 14 -11 3 -9 -7 -18 -8 -21 -2 -7 10 44 52 55 45 4 -2 4 -17 0 -34z m99
-25 c18 -21 5 -48 -20 -40 -13 4 -20 2 -20 -6 0 -10 -3 -10 -11 -2 -8 8 -6 18
7 37 22 30 27 31 44 11z m-77 -23 c-3 -12 -9 -22 -14 -22 -12 0 -11 7 3 30 15
24 19 21 11 -8z"/>
<path d="M2910 3910 c0 -5 5 -10 11 -10 5 0 7 5 4 10 -3 6 -8 10 -11 10 -2 0
-4 -4 -4 -10z"/>
<path d="M3305 3700 c-3 -5 -1 -10 4 -10 6 0 11 5 11 10 0 6 -2 10 -4 10 -3 0
-8 -4 -11 -10z"/>
<path d="M2776 3815 c10 -8 26 -14 34 -14 9 0 4 6 -10 14 -33 19 -49 19 -24 0z"/>
<path d="M934 3778 c-60 -47 -80 -65 -168 -154 -124 -124 -158 -162 -192 -214
-16 -25 -31 -47 -34 -50 -3 -3 -11 -18 -19 -35 -15 -36 -18 -39 60 60 83 106
154 183 259 280 117 108 138 126 144 116 3 -4 -32 -40 -78 -80 -137 -117 -269
-262 -380 -416 -27 -38 -26 -37 20 10 27 28 69 75 95 105 78 94 320 330 337
330 4 0 13 9 20 21 10 16 10 24 1 35 -16 20 -32 18 -65 -8z"/>
<path d="M3366 3659 c-33 -38 -32 -48 4 -77 l29 -23 30 33 c37 40 38 48 8 76
-31 29 -40 28 -71 -9z m65 -15 c12 -15 11 -16 -10 -9 -16 5 -21 4 -17 -4 4 -6
1 -11 -6 -11 -10 0 -9 -3 2 -10 22 -14 5 -23 -20 -10 l-22 12 23 24 c27 28 32
29 50 8z"/>
<path d="M3064 3652 c4 -6 41 -30 84 -53 42 -23 138 -77 212 -119 185 -106
177 -102 177 -84 0 7 -3 12 -5 9 -3 -3 -20 6 -38 20 -18 14 -43 30 -56 35 -47
22 -68 37 -60 46 4 5 3 6 -2 2 -8 -7 -64 16 -76 31 -7 8 -80 48 -112 62 -16 6
-28 15 -28 20 0 5 -8 9 -18 9 -10 0 -22 4 -27 9 -16 14 -59 25 -51 13z"/>
<path d="M1315 3574 c-16 -14 -21 -21 -10 -15 30 14 61 40 50 41 -5 0 -23 -12
-40 -26z"/>
<path d="M966 3579 c3 -5 0 -9 -6 -9 -12 0 -130 -120 -130 -133 0 -4 -11 -24
-25 -45 -22 -33 -23 -37 -9 -53 9 -10 22 -15 30 -12 13 5 126 133 171 194 25
35 21 55 -12 62 -14 2 -22 0 -19 -4z m-17 -76 c-31 -32 -73 -79 -94 -105 -47
-59 -66 -63 -24 -5 55 77 140 167 157 167 11 0 -3 -20 -39 -57z"/>
<path d="M3502 3578 c-21 -21 -14 -33 63 -110 41 -42 75 -79 75 -84 0 -5 16
-19 35 -31 30 -20 35 -21 43 -7 10 18 4 64 -8 64 -5 0 -11 8 -14 18 -11 34
-147 162 -172 162 -6 0 -15 -5 -22 -12z m91 -75 c68 -69 123 -141 114 -149 -2
-3 -28 24 -56 60 -29 36 -72 83 -97 104 -24 22 -44 42 -44 46 0 16 22 0 83
-61z"/>
<path d="M1238 3537 c-25 -25 -125 -77 -133 -69 -5 4 -5 1 -1 -5 4 -8 1 -13
-7 -13 -8 0 -20 -7 -27 -15 -7 -8 -16 -13 -20 -10 -4 3 -13 -2 -20 -10 -11
-13 -10 -14 6 -8 48 18 224 124 224 135 0 11 -7 10 -22 -5z"/>
<path d="M484 3165 c-4 -8 -4 -22 0 -30 3 -10 -1 -15 -13 -15 -18 0 -25 -27
-10 -45 5 -6 0 -24 -11 -40 -11 -17 -20 -40 -20 -51 0 -27 21 -46 39 -34 19
11 42 77 44 122 1 34 3 36 27 31 28 -5 54 15 42 33 -12 18 -56 44 -75 44 -9 0
-20 -7 -23 -15z m50 -19 c-3 -8 -12 -12 -20 -9 -21 8 -17 23 6 23 13 0 18 -5
14 -14z m22 -33 c-10 -10 -19 5 -10 18 6 11 8 11 12 0 2 -7 1 -15 -2 -18z
m-56 -35 c0 -6 -7 -5 -15 2 -8 7 -15 17 -15 22 0 6 7 5 15 -2 8 -7 15 -17 15
-22z m-22 -73 c-12 -25 -26 -45 -30 -45 -12 0 -10 7 12 50 28 55 45 50 18 -5z"/>
<path d="M3942 3161 c-12 -10 -22 -25 -22 -33 0 -19 32 -48 53 -48 10 0 23
-15 32 -37 33 -80 40 -93 54 -98 7 -3 19 -1 26 5 15 12 4 56 -35 145 -37 86
-66 103 -108 66z m73 -51 c35 -69 67 -152 61 -158 -3 -3 -14 15 -25 39 -63
147 -72 163 -81 150 -4 -8 -6 -20 -3 -28 8 -21 -5 -15 -18 8 -6 12 -7 19 -1
15 5 -3 12 1 16 9 10 27 25 16 51 -35z"/>
<path d="M421 2827 c-29 -29 3 -76 49 -69 22 3 32 11 36 29 4 13 2 29 -3 34
-15 15 -69 19 -82 6z m33 -46 c-9 -10 -26 18 -18 30 5 9 9 8 14 -7 4 -10 6
-21 4 -23z m36 13 c0 -8 -4 -14 -10 -14 -5 0 -10 9 -10 21 0 11 5 17 10 14 6
-3 10 -13 10 -21z"/>
<path d="M4043 2823 c-12 -2 -27 -11 -34 -20 -11 -13 -10 -18 9 -33 27 -22 27
-26 2 -33 -25 -6 -27 -42 -2 -52 16 -6 16 -7 -1 -20 -39 -29 -21 -80 30 -83
37 -1 70 62 38 74 -12 5 -12 9 2 31 13 20 14 29 4 44 -9 16 -9 24 3 41 14 20
14 24 -1 40 -9 10 -19 17 -22 17 -3 -1 -16 -4 -28 -6z m37 -40 c0 -21 -3 -24
-12 -15 -7 7 -22 12 -35 12 -32 0 -29 18 5 23 15 2 30 5 35 6 4 0 7 -11 7 -26z
m0 -62 c0 -9 -60 -24 -68 -16 -5 5 36 23 56 24 6 1 12 -3 12 -8z m0 -31 c0 -5
-4 -10 -9 -10 -6 0 -13 5 -16 10 -3 6 1 10 9 10 9 0 16 -4 16 -10z m-46 -57
c-5 -17 -5 -17 6 0 13 21 34 23 27 3 -3 -8 -1 -17 6 -19 7 -2 -3 -6 -20 -9
-29 -4 -33 -2 -33 19 0 13 4 23 10 23 5 0 7 -8 4 -17z"/>
<path d="M656 2784 c-8 -20 -8 -24 2 -24 4 0 8 9 9 20 2 24 -3 26 -11 4z"/>
<path d="M448 2727 c-32 -12 -43 -34 -27 -53 7 -9 7 -18 0 -33 -22 -40 -8 -71
33 -75 41 -5 55 16 54 81 -1 97 -5 102 -60 80z m32 -32 c-10 -12 -10 -15 0
-15 8 0 11 -2 8 -5 -7 -8 -58 5 -58 14 0 8 53 29 59 24 2 -1 -2 -9 -9 -18z m6
-85 c0 -15 -7 -20 -28 -20 -21 0 -28 5 -28 20 0 15 7 20 28 20 21 0 28 -5 28
-20z"/>
<path d="M3926 2635 c39 -326 16 -636 -63 -841 -4 -10 0 -12 11 -8 9 3 13 10
10 15 -3 6 -1 16 6 24 6 7 13 24 14 37 4 27 15 77 23 98 3 8 7 22 8 30 12 68
18 97 25 110 8 16 5 430 -4 470 -3 14 -12 45 -21 70 l-15 45 6 -50z"/>
<path d="M586 2649 c-30 -141 -40 -324 -25 -479 9 -93 16 -145 19 -145 1 0 4
-13 6 -30 3 -16 16 -66 30 -110 14 -44 27 -85 28 -92 1 -7 5 -15 9 -19 8 -9 5
4 -34 156 -31 119 -32 136 -36 355 -3 150 -1 255 7 303 6 41 9 76 6 79 -3 3
-7 -5 -10 -18z"/>
<path d="M3889 2640 c-1 -8 -1 -24 1 -35 1 -11 4 -138 6 -283 2 -204 0 -264
-10 -268 -8 -3 -11 -20 -9 -50 2 -30 0 -43 -7 -39 -6 4 -10 -7 -10 -29 0 -19
-4 -37 -8 -40 -9 -5 -9 -42 0 -51 12 -12 61 226 67 325 8 134 -3 427 -17 460
-7 15 -12 19 -13 10z"/>
<path d="M192 2560 c0 -14 2 -19 5 -12 2 6 2 18 0 25 -3 6 -5 1 -5 -13z"/>
<path d="M4322 2550 c0 -19 2 -27 5 -17 2 9 2 25 0 35 -3 9 -5 1 -5 -18z"/>
<path d="M171 2554 c0 -11 3 -14 6 -6 3 7 2 16 -1 19 -3 4 -6 -2 -5 -13z"/>
<path d="M4030 2547 c-20 -10 -25 -21 -27 -52 -3 -69 3 -84 37 -83 42 1 67 31
52 63 -6 14 -9 31 -6 38 2 7 -3 21 -13 30 -16 13 -23 14 -43 4z m50 -27 c0 -5
-13 -10 -29 -10 -17 0 -33 5 -36 10 -4 6 8 10 29 10 20 0 36 -4 36 -10z m-46
-55 c-8 -21 6 -19 22 3 12 16 13 16 20 -1 8 -22 6 -24 -26 -29 -20 -2 -26 2
-28 20 -2 12 1 22 7 22 6 0 8 -7 5 -15z"/>
<path d="M423 2525 c-10 -10 -9 -16 2 -25 12 -10 12 -15 -2 -37 -16 -24 -16
-26 3 -42 20 -16 20 -17 2 -35 -24 -25 -23 -42 3 -60 26 -18 60 -8 76 24 10
20 8 26 -10 41 -12 10 -17 18 -11 19 6 0 16 11 22 24 8 19 8 27 -3 36 -10 9
-12 17 -5 30 18 34 -49 57 -77 25z m67 -15 c0 -5 -13 -10 -30 -10 -16 0 -30 5
-30 10 0 6 14 10 30 10 17 0 30 -4 30 -10z m0 -50 c0 -5 -5 -10 -11 -10 -8 0
-7 -6 2 -17 12 -15 12 -16 -4 -10 -10 4 -25 7 -33 7 -22 0 -16 20 9 30 30 12
37 12 37 0z m-44 -95 c-3 -8 -1 -15 3 -15 5 0 12 7 15 16 7 17 26 10 26 -10 0
-20 -54 -14 -58 7 -2 9 2 17 8 17 7 0 10 -7 6 -15z"/>
<path d="M4018 2363 c-25 -6 -25 -73 -1 -73 15 0 14 -2 -4 -15 -21 -15 -22
-45 -1 -71 5 -7 2 -16 -7 -24 -18 -15 -20 -41 -3 -58 9 -9 9 -18 -1 -38 -9
-21 -9 -34 0 -56 9 -22 9 -32 0 -41 -16 -16 -13 -45 7 -57 16 -10 16 -10 0
-20 -20 -12 -24 -45 -8 -55 8 -5 7 -11 -1 -21 -10 -12 -8 -19 9 -37 12 -12 22
-16 22 -10 0 7 -4 15 -10 18 -12 8 -13 25 -1 25 5 0 11 -10 15 -22 6 -22 6
-22 22 7 8 16 22 34 30 38 17 10 18 39 2 55 -9 9 -9 15 0 24 17 17 15 45 -4
56 -13 7 -13 12 3 41 18 32 18 32 -4 50 -20 17 -21 20 -7 32 28 23 33 52 11
69 -17 14 -18 17 -3 29 19 16 21 42 4 59 -9 9 -9 17 1 35 11 20 10 28 0 46
-13 20 -33 24 -71 14z m62 -38 c0 -8 -4 -17 -10 -20 -5 -3 -10 2 -10 12 -1 17
-1 17 -11 0 -8 -14 -14 -16 -25 -6 -14 12 -9 33 6 24 5 -3 11 -1 15 4 8 14 35
2 35 -14z m0 -80 c0 -17 -36 -39 -50 -30 -6 3 -10 15 -10 26 0 14 7 19 30 19
20 0 30 -5 30 -15z m-2 -92 c-4 -20 -45 -30 -60 -15 -16 16 1 32 33 32 24 0
30 -4 27 -17z m-1 -87 c12 -12 -8 -36 -31 -36 -21 0 -42 30 -30 43 6 6 54 0
61 -7z m-4 -106 c4 -17 0 -20 -29 -20 -27 0 -34 4 -34 20 0 15 7 20 29 20 20
0 30 -6 34 -20z m7 -81 c0 -12 -7 -19 -20 -19 -11 0 -20 6 -20 13 0 8 -3 7
-10 -3 -11 -17 -25 -7 -17 13 3 8 19 14 36 15 24 0 31 -4 31 -19z m-20 -43 c0
-3 -4 -8 -10 -11 -5 -3 -10 -1 -10 4 0 6 5 11 10 11 6 0 10 -2 10 -4z"/>
<path d="M4030 2240 c0 -5 7 -10 15 -10 8 0 15 5 15 10 0 6 -7 10 -15 10 -8 0
-15 -4 -15 -10z"/>
<path d="M4030 2150 c0 -5 4 -10 9 -10 6 0 13 5 16 10 3 6 -1 10 -9 10 -9 0
-16 -4 -16 -10z"/>
<path d="M4030 2050 c0 -5 4 -10 9 -10 6 0 13 5 16 10 3 6 -1 10 -9 10 -9 0
-16 -4 -16 -10z"/>
<path d="M4030 1959 c0 -5 5 -7 10 -4 6 3 10 8 10 11 0 2 -4 4 -10 4 -5 0 -10
-5 -10 -11z"/>
<path d="M426 2274 c-19 -18 -20 -28 -6 -55 16 -28 63 -25 79 5 27 49 -33 90
-73 50z m39 -24 l-30 -8 28 -1 c37 -1 35 -16 -3 -17 -23 -1 -30 3 -30 17 0 15
7 19 33 18 l32 -1 -30 -8z"/>
<path d="M641 2204 c0 -11 3 -14 6 -6 3 7 2 16 -1 19 -3 4 -6 -2 -5 -13z"/>
<path d="M422 2178 c-7 -7 -12 -22 -12 -35 0 -39 72 -45 87 -7 11 29 -52 65
-75 42z m28 -17 c0 -5 9 -7 20 -4 11 3 20 0 20 -6 0 -6 -6 -11 -14 -11 -8 0
-21 -3 -30 -6 -12 -4 -16 0 -16 15 0 12 5 21 10 21 6 0 10 -4 10 -9z"/>
<path d="M428 2077 c-19 -18 -23 -28 -17 -45 5 -12 14 -22 20 -22 8 0 8 -4 1
-12 -10 -13 -17 -46 -12 -60 7 -22 4 -34 -10 -45 -13 -10 -13 -15 6 -40 27
-36 50 -40 79 -13 26 24 27 37 7 59 -9 10 -10 17 -3 24 14 14 14 54 1 62 -7 4
-7 12 0 25 21 40 -1 87 -36 73 -12 -4 -15 -3 -10 5 11 19 1 14 -26 -11z m62
-38 c0 -16 -5 -20 -27 -17 -17 2 -29 10 -31 21 -3 13 3 17 27 17 25 0 31 -4
31 -21z m0 -75 c0 -2 -14 -4 -31 -4 -16 0 -28 4 -25 9 5 8 56 3 56 -5z m0 -24
c0 -5 -13 -10 -30 -10 -16 0 -30 5 -30 10 0 6 14 10 30 10 17 0 30 -4 30 -10z
m-40 -66 c0 -9 6 -14 13 -11 6 2 11 10 10 16 -2 6 2 11 8 11 6 0 9 -8 7 -17
-2 -12 -12 -18 -28 -18 -16 0 -26 6 -28 18 -2 9 1 17 7 17 6 0 11 -7 11 -16z"/>
<path d="M450 2040 c0 -5 4 -10 9 -10 6 0 13 5 16 10 3 6 -1 10 -9 10 -9 0
-16 -4 -16 -10z"/>
<path d="M460 1726 c0 -2 9 -24 20 -49 22 -50 47 -77 30 -33 -20 54 -50 102
-50 82z"/>
<path d="M643 1675 c0 -33 2 -45 4 -27 2 18 2 45 0 60 -2 15 -4 0 -4 -33z"/>
<path d="M430 1705 c0 -3 11 -27 25 -53 28 -52 35 -33 8 23 -14 30 -33 47 -33
30z"/>
<path d="M4026 1686 c-8 -14 -12 -27 -7 -30 8 -5 35 43 28 51 -2 2 -12 -8 -21
-21z"/>
<path d="M4057 1670 l-17 -45 21 21 c12 13 19 31 17 45 -2 20 -6 17 -21 -21z"/>
<path d="M647 1603 c-4 -3 -7 -16 -6 -27 0 -19 1 -19 10 3 10 24 8 36 -4 24z"/>
<path d="M3947 1570 c-27 -32 -31 -63 -9 -77 44 -26 83 44 46 81 -19 20 -16
20 -37 -4z m43 -16 c0 -15 -26 -54 -37 -54 -16 0 -16 10 -3 44 6 17 14 24 25
20 8 -3 15 -8 15 -10z"/>
<path d="M395 1390 c4 -14 14 -29 21 -35 7 -5 21 -27 32 -48 11 -21 22 -35 24
-30 3 4 -15 37 -40 73 -24 36 -41 54 -37 40z"/>
<path d="M4088 1349 c-9 -16 -14 -29 -9 -29 8 0 34 50 29 56 -2 1 -11 -11 -20
-27z"/>
<path d="M4059 1365 c-1 -3 -2 -9 -3 -13 0 -5 -9 -16 -18 -26 -10 -10 -18 -21
-18 -25 0 -4 -18 -27 -40 -50 -22 -23 -40 -48 -40 -56 0 -7 -9 -17 -21 -20
-11 -4 -18 -9 -15 -12 9 -10 -213 -238 -323 -331 -64 -55 -67 -78 -3 -26 154
123 330 312 437 468 19 28 42 61 51 74 10 13 12 22 5 22 -6 0 -12 -2 -12 -5z"/>
<path d="M495 1290 c116 -167 264 -334 377 -426 39 -32 82 -69 95 -81 13 -12
23 -18 23 -13 0 5 -5 12 -10 15 -6 4 -8 11 -5 16 4 5 2 9 -3 9 -6 0 -25 15
-43 33 -19 18 -44 40 -57 49 -27 18 -117 104 -149 142 -12 14 -49 58 -82 98
-32 40 -70 84 -85 97 -14 13 -24 27 -23 30 1 3 -15 24 -37 46 l-39 40 38 -55z"/>
<path d="M3973 1188 c-98 -132 -237 -281 -345 -369 -37 -29 -67 -57 -67 -61
-1 -12 19 -9 34 5 8 6 33 28 56 47 61 52 198 188 248 248 60 72 140 190 133
196 -3 3 0 6 6 6 6 0 14 9 17 20 4 11 11 18 16 15 5 -4 9 -1 9 4 0 26 -21 4
-107 -111z"/>
<path d="M480 1266 c-1 -19 61 -107 158 -226 46 -55 224 -230 235 -230 4 0 18
-11 30 -24 12 -13 33 -26 47 -30 20 -6 16 1 -20 31 -178 151 -270 250 -432
465 -9 13 -17 19 -18 14z"/>
<path d="M802 1207 l-20 -22 24 -25 c13 -13 24 -28 24 -33 0 -5 11 -21 24 -35
13 -15 43 -48 66 -74 28 -32 51 -48 66 -48 36 0 30 38 -14 87 -20 23 -48 56
-62 73 -14 17 -39 47 -56 65 l-32 34 -20 -22z m45 -29 c13 -12 23 -27 23 -33
0 -6 29 -41 65 -79 62 -65 76 -86 56 -86 -17 0 -181 195 -181 215 0 11 15 4
37 -17z"/>
<path d="M3667 1195 c-16 -14 -25 -30 -22 -35 3 -6 -1 -10 -10 -10 -9 0 -19
-9 -22 -20 -3 -11 -9 -17 -14 -14 -5 3 -9 1 -9 -5 0 -5 -22 -34 -50 -64 -32
-35 -50 -63 -49 -78 0 -22 1 -23 9 -4 4 11 31 43 60 70 28 28 67 74 87 103 36
53 50 68 59 59 10 -9 -43 -81 -115 -158 -72 -78 -80 -89 -60 -89 15 0 127 117
134 141 4 10 11 19 16 19 5 0 9 5 9 12 0 6 10 22 22 35 17 18 20 28 12 40 -16
25 -26 25 -57 -2z"/>
<path d="M3520 1162 c0 -6 -10 -14 -22 -18 -13 -4 -36 -16 -53 -28 -16 -11
-32 -22 -34 -23 -2 -2 -1 -6 2 -9 4 -4 13 -1 22 6 8 7 15 9 15 5 0 -4 10 3 23
16 13 13 32 29 43 35 10 7 16 15 12 19 -5 5 -8 3 -8 -3z"/>
<path d="M1045 1115 c17 -13 34 -24 39 -25 6 0 -5 11 -24 25 -44 32 -54 32
-15 0z"/>
<path d="M3334 1047 c-44 -30 -74 -47 -141 -81 -20 -10 -31 -26 -18 -26 11 0
96 48 155 88 75 51 77 52 63 52 -6 0 -33 -15 -59 -33z"/>
<path d="M1092 1018 c-7 -7 -12 -16 -12 -21 0 -4 -12 -24 -26 -43 -14 -18 -24
-40 -21 -48 7 -19 47 -41 47 -26 0 5 5 10 11 10 6 0 8 -7 5 -16 -6 -16 15 -44
33 -44 6 0 11 -4 11 -10 0 -23 40 -7 68 28 17 20 33 34 37 30 4 -3 -4 -18 -16
-32 -24 -28 -33 -56 -18 -56 5 0 9 -7 9 -15 0 -8 4 -15 9 -15 16 0 60 27 86
52 l24 25 -114 72 c-63 39 -117 76 -121 82 -13 22 6 20 38 -4 48 -35 55 -38
55 -21 0 8 -11 17 -23 20 -12 3 -30 14 -40 25 -20 22 -26 23 -42 7z m8 -67 c0
-15 -38 -56 -45 -49 -4 4 1 18 12 32 18 26 33 33 33 17z m40 -20 c0 -5 -7 -14
-15 -21 -16 -14 -18 -10 -9 14 6 17 24 22 24 7z m42 -50 c3 8 9 11 13 7 7 -7
-25 -57 -37 -58 -5 0 -8 10 -8 21 0 18 -2 19 -15 9 -20 -17 -19 0 1 29 l17 24
12 -23 c9 -17 14 -19 17 -9z m99 -48 c12 -15 12 -16 -5 -10 -16 6 -17 5 -6 -8
11 -13 10 -14 -3 -10 -8 4 -18 2 -22 -4 -3 -6 -11 -11 -16 -11 -6 0 -1 14 11
30 25 35 24 35 41 13z"/>
<path d="M1230 1006 c0 -2 7 -7 16 -10 8 -3 12 -2 9 4 -6 10 -25 14 -25 6z"/>
<path d="M3287 950 c-26 -16 -51 -30 -54 -30 -4 0 -14 -7 -24 -16 -9 -8 -25
-17 -34 -18 -9 -1 -20 -7 -23 -12 -9 -11 -69 -54 -77 -54 -4 0 -26 -14 -51
-30 -24 -17 -44 -29 -44 -26 0 6 -101 -60 -122 -80 -9 -9 -21 -13 -26 -10 -6
3 -12 3 -14 -1 -4 -11 -96 -73 -107 -73 -5 0 -20 -9 -35 -21 -14 -11 -26 -18
-26 -14 0 14 -59 -30 -69 -52 -6 -12 -7 -22 -3 -22 37 6 63 -3 72 -25 5 -13
14 -27 19 -31 7 -4 7 3 -1 20 -10 21 -9 29 5 42 13 13 19 14 31 3 21 -16 20
-30 -1 -46 -10 -7 -15 -15 -12 -18 3 -3 15 2 26 11 17 14 19 22 11 51 -8 27
-7 37 4 43 7 4 42 25 78 47 l64 39 13 -24 c21 -40 42 -56 68 -49 21 5 42 39
37 59 -3 11 26 8 34 -4 3 -6 9 -7 13 -3 3 5 15 14 25 20 40 21 43 41 11 74
-15 16 -25 33 -21 37 4 5 14 -1 22 -12 38 -54 53 -64 79 -52 31 15 31 20 0 51
-14 14 -25 31 -25 38 0 7 14 -3 29 -22 16 -19 32 -32 36 -28 8 8 -21 65 -37
70 -6 2 -8 10 -4 16 5 9 17 0 36 -27 31 -42 50 -58 50 -42 0 6 6 11 13 11 15
0 47 35 47 53 0 7 -6 19 -12 27 -7 8 -1 5 13 -8 32 -28 40 -28 67 1 27 29 27
31 2 66 -17 22 -19 32 -11 54 10 25 4 23 -77 -30 -170 -110 -643 -393 -667
-399 -36 -9 -31 11 8 27 17 7 61 31 97 52 36 22 101 61 145 87 103 60 417 254
464 286 51 35 14 30 -42 -6z m53 -76 c0 -9 -5 -12 -11 -8 -7 4 -10 1 -7 -7 3
-8 15 -13 29 -11 23 3 23 2 5 -13 -26 -20 -30 -19 -46 11 -12 22 -12 27 0 34
22 14 30 12 30 -6z m-70 -24 c0 -5 -5 -10 -11 -10 -5 0 -7 5 -4 10 3 6 8 10
11 10 2 0 4 -4 4 -10z m-15 -40 c20 -38 19 -43 -4 -30 -26 14 -38 13 -23 -2 7
-7 12 -17 12 -22 -1 -13 -40 32 -40 46 0 5 9 6 21 3 18 -6 20 -4 14 14 -9 31
2 26 20 -9z m-106 -125 c0 -5 -11 3 -24 18 -14 15 -25 33 -25 40 0 7 11 -1 25
-18 13 -16 24 -34 24 -40z m-87 -5 c9 -17 13 -30 8 -30 -10 0 -40 40 -40 52 0
17 16 6 32 -22z m-24 -37 c0 -30 -4 -29 -23 7 -20 38 -19 43 4 28 10 -6 19
-22 19 -35z m-58 16 c0 -5 -4 -9 -10 -9 -5 0 -10 7 -10 16 0 8 5 12 10 9 6 -3
10 -10 10 -16z m-41 -30 c-10 -6 -8 -9 9 -9 13 0 22 -6 22 -15 0 -18 -36 -39
-45 -25 -3 5 1 10 9 10 9 0 16 4 16 9 0 5 -9 7 -20 4 -13 -4 -20 0 -20 9 0 19
21 39 33 31 5 -3 3 -9 -4 -14z m58 5 c-3 -3 -12 -4 -19 -1 -8 3 -5 6 6 6 11 1
17 -2 13 -5z"/>
<path d="M1210 952 c0 -5 24 -24 53 -42 28 -18 68 -43 87 -55 82 -52 224 -136
234 -138 6 -1 13 -5 16 -8 6 -9 91 -59 255 -151 50 -28 81 -36 70 -19 -7 13
-64 41 -82 41 -7 0 -13 5 -13 11 0 5 -4 7 -10 4 -5 -3 -10 -1 -10 4 0 6 -7 11
-15 11 -8 0 -15 4 -15 9 0 5 -11 12 -25 15 -14 4 -25 11 -25 17 0 6 -4 7 -10
4 -5 -3 -10 -1 -10 4 0 6 -6 11 -14 11 -8 0 -17 7 -20 16 -3 9 -12 14 -20 11
-7 -3 -25 5 -40 18 -15 13 -41 27 -57 30 -17 4 -26 11 -23 17 4 6 3 8 -3 5 -5
-4 -21 4 -34 16 -13 12 -26 22 -29 22 -19 2 -50 18 -50 26 0 5 -6 9 -13 9 -8
0 -22 9 -32 20 -10 11 -21 17 -26 15 -4 -3 -11 1 -16 9 -4 8 -15 16 -23 18
-15 3 -22 7 -59 38 -25 21 -41 25 -41 12z"/>
<path d="M3140 932 c0 -5 -18 -17 -40 -27 -41 -18 -53 -35 -23 -31 9 2 19 8
21 14 2 7 12 12 23 12 10 0 19 5 19 10 0 6 7 10 16 10 8 0 12 5 9 10 -8 12
-25 13 -25 2z"/>
<path d="M1387 915 c3 -8 9 -12 14 -9 12 7 11 11 -5 17 -10 4 -13 1 -9 -8z"/>
<path d="M3396 914 c-15 -14 -14 -17 6 -34 17 -13 27 -15 36 -8 17 15 15 45
-4 52 -21 8 -20 8 -38 -10z m34 -14 c0 -5 -4 -10 -10 -10 -5 0 -10 5 -10 10 0
6 5 10 10 10 6 0 10 -4 10 -10z"/>
<path d="M3002 849 c-37 -24 -37 -38 0 -18 12 7 26 12 30 11 3 -1 9 5 12 13 7
20 -3 19 -42 -6z"/>
<path d="M1496 852 c-3 -5 1 -9 9 -9 8 0 12 4 9 9 -3 4 -7 8 -9 8 -2 0 -6 -4
-9 -8z"/>
<path d="M1322 785 l-31 -44 29 -31 c33 -36 50 -32 94 21 18 21 26 25 26 14 0
-8 -6 -18 -14 -21 -8 -3 -17 -17 -21 -31 -5 -21 0 -32 21 -51 24 -23 28 -24
39 -9 14 20 29 23 23 5 -7 -21 66 -76 77 -58 8 13 25 13 25 -1 0 -6 8 -21 18
-33 14 -18 23 -21 40 -15 30 11 38 35 17 55 -13 13 -19 14 -28 5 -9 -10 -8
-16 7 -27 11 -7 17 -16 14 -19 -3 -3 -16 3 -29 14 l-24 20 23 23 23 23 20 -24
c16 -19 22 -21 34 -11 12 10 15 9 15 -4 0 -9 -3 -16 -8 -16 -4 0 -13 -14 -21
-31 -15 -33 -15 -33 33 -60 15 -9 23 -6 42 17 13 15 24 31 24 36 0 13 20 9 36
-6 17 -18 18 -36 2 -36 -6 0 -8 -3 -5 -6 4 -4 13 -1 21 5 18 15 36 7 36 -15 0
-14 2 -13 16 0 8 9 21 16 27 16 7 0 -8 10 -33 21 -24 11 -51 26 -60 34 -8 7
-44 30 -80 50 -118 67 -128 74 -169 99 -22 15 -43 26 -45 26 -3 0 -42 23 -88
51 -46 28 -86 53 -89 55 -3 2 -20 -17 -37 -41z m48 -4 c0 -6 -4 -13 -10 -16
-13 -8 -13 -35 -1 -35 5 0 13 9 16 20 3 11 11 20 16 20 14 0 11 -16 -10 -41
-19 -23 -21 -23 -37 -7 -15 14 -16 22 -6 43 11 24 32 35 32 16z m90 -81 c-5
-10 -7 -26 -3 -35 5 -15 3 -16 -15 -6 -20 11 -20 12 -4 40 18 32 39 32 22 1z
m63 6 c5 -13 -28 -54 -37 -45 -2 2 -2 16 1 32 6 29 27 37 36 13z m53 -59 c15
6 15 4 -1 -20 -21 -33 -35 -35 -35 -4 0 17 -2 19 -10 7 -5 -8 -12 -12 -15 -8
-4 3 1 18 11 33 17 26 18 27 25 6 6 -14 14 -19 25 -14z m49 -7 c-3 -5 -11 -10
-16 -10 -6 0 -7 5 -4 10 3 6 11 10 16 10 6 0 7 -4 4 -10z m145 -101 c0 -6 -7
-9 -15 -6 -8 4 -17 2 -20 -3 -4 -6 -1 -10 4 -10 6 0 11 -4 11 -10 0 -13 -27
-13 -36 1 -3 6 -1 22 6 35 10 18 17 21 31 13 11 -5 19 -15 19 -20z"/>
<path d="M1535 820 c3 -5 8 -10 11 -10 2 0 4 5 4 10 0 6 -5 10 -11 10 -5 0 -7
-4 -4 -10z"/>
<path d="M2921 801 l-25 -19 26 5 c15 3 29 11 32 19 7 19 -4 17 -33 -5z"/>
<path d="M2765 709 c-33 -21 -71 -44 -84 -49 -14 -6 -34 -21 -46 -33 -11 -12
-28 -23 -36 -25 -25 -6 -99 -53 -99 -63 0 -11 3 -10 65 30 22 14 43 25 47 26
3 0 19 11 35 25 15 13 28 23 28 21 0 -2 16 6 35 18 19 11 49 27 65 35 17 8 41
24 55 35 43 35 -1 22 -65 -20z"/>
<path d="M1150 645 c-17 -21 -2 -36 90 -96 66 -43 100 -58 100 -45 0 2 -42 30
-92 62 -51 32 -95 59 -97 60 -1 2 0 7 3 13 4 5 27 -5 55 -24 27 -18 68 -41 90
-51 22 -11 42 -26 44 -34 3 -8 5 -4 6 8 1 16 -6 26 -19 29 -11 3 -20 9 -20 13
0 5 -10 12 -22 16 -13 3 -36 15 -51 26 -15 11 -33 21 -40 22 -7 1 -17 5 -23 9
-7 4 -17 0 -24 -8z"/>
<path d="M3305 634 c-28 -15 -52 -30 -55 -33 -3 -3 -21 -14 -42 -25 -35 -18
-55 -50 -37 -62 5 -3 9 3 9 13 0 11 16 25 43 37 62 29 125 69 131 84 7 16 9
16 -49 -14z"/>
<path d="M3355 616 c-11 -8 -54 -35 -95 -61 -42 -27 -69 -50 -62 -53 8 -2 27
5 43 17 15 11 32 21 36 21 4 0 21 11 37 25 16 14 35 25 41 25 7 0 15 9 18 20
3 11 4 20 4 19 -1 0 -11 -6 -22 -13z"/>
<path d="M2680 480 c0 -5 5 -10 10 -10 6 0 10 5 10 10 0 6 -4 10 -10 10 -5 0
-10 -4 -10 -10z"/>
<path d="M2120 320 c-65 -5 -38 -7 114 -8 110 -1 197 0 194 4 -9 8 -214 11
-308 4z"/>
<path d="M2057 283 c-3 -5 6 -9 19 -9 13 -1 21 2 18 7 -6 11 -31 12 -37 2z"/>
<path d="M2110 278 c0 -8 32 -9 185 -9 140 0 165 1 165 9 0 5 -79 8 -175 8
-96 0 -175 -4 -175 -8z"/>
</g>
</svg>
